<svg width="31" height="16" xmlns="http://www.w3.org/2000/svg"><path d="M15.242.048C6.873.048.089 3.608.089 8.002c0 4.393 6.784 7.954 15.153 7.954 8.368 0 15.152-3.561 15.152-7.954S23.61.048 15.242.048zM1.39 7.299C1.39 3.807 7.389.97 14.857.883L5.002 11.627c-2.243-1.141-3.611-2.66-3.611-4.328zm14.95-4.057l4.95 7.666L8.802 8.672l7.539-5.43zM15.206 13.72c-3.847 0-7.325-.732-9.83-1.91l19.137.234c-2.456 1.04-5.722 1.676-9.307 1.676zm10.155-2.07L15.621.885c7.438.102 13.4 2.934 13.4 6.415 0 1.679-1.388 3.207-3.66 4.352z" fill="#393939" fill-rule="evenodd"/></svg>