<svg width="18" height="17" xmlns="http://www.w3.org/2000/svg"><path d="M.635 8.88C.635 1.577 6.043.901 9.018.901c2.975 0 8.383.676 8.383 7.977 0 7.122-5.498 8.023-8.383 8.023-2.84 0-8.383-.901-8.383-8.023zm11.538-.271l.901 6.76c.496-.27 3.2-1.577 3.155-6.49 0-5.769-3.515-7.3-6.535-7.3l2.479 7.03zM9.018 7.257h.406V1.578h-.766v5.679h.36zm0 8.969c1.668 0 3.155-.45 3.786-.766l-3.29-7.166h-.992l-3.29 7.166c.631.315 2.118.766 3.786.766zM8.342 1.578c-3.02 0-6.535 1.532-6.535 7.301-.045 4.913 2.659 6.22 3.155 6.49l.946-6.76 2.434-7.03z" fill="#393939" fill-rule="evenodd"/></svg>