<svg width="16" height="16" xmlns="http://www.w3.org/2000/svg"><g fill="none" fill-rule="evenodd"><path d="M8 15.986a7.93 7.93 0 005.647-2.339A7.934 7.934 0 0015.987 8a7.936 7.936 0 00-2.34-5.647A7.934 7.934 0 008 .013C3.596.014.014 3.597.014 8a7.93 7.93 0 002.339 5.647A7.934 7.934 0 008 15.987" fill="#393939"/><path d="M.29 8a7.66 7.66 0 012.258-5.452A7.66 7.66 0 018 .29a7.66 7.66 0 015.452 2.258A7.66 7.66 0 0115.71 8c0 4.251-3.459 7.71-7.71 7.71a7.66 7.66 0 01-5.452-2.258A7.66 7.66 0 01.29 8" fill="#FFFFFE"/><path d="M8 .608a7.392 7.392 0 100 14.784A7.392 7.392 0 008 .608" fill="#393939"/><path d="M8 12.722a4.722 4.722 0 110-9.444 4.722 4.722 0 010 9.444" fill="#FFFFFE"/><path d="M3.582 8H8V3.582A4.418 4.418 0 003.582 8M8 8v4.418A4.418 4.418 0 0012.418 8H8" fill="#393939"/><path d="M4.53 3.495a.496.496 0 00-.626-.057.432.432 0 00.003-.29c-.098-.18-.132-.202-.213-.27-.26-.218-.535-.031-.732.203l-.95 1.131 1.493 1.253L4.506 4.27c.23-.272.264-.542.024-.776m3.717-.537L8.76 1.6v1.358h.39V1.011h-.586l-.532 1.394h.005L7.505 1.01H6.92v1.946h.39V1.6l.512 1.358h.425m5.238.809l-.734 1.038 1.137-.54.301.372-1.79.867-.353-.44.704-1.029-.004-.005-1.153.475-.357-.437 1.22-1.57.302.371-.764 1 1.168-.501.323.399" fill="#FFFFFE"/><path d="M3.17 3.36c.066-.078.215-.075.31.006.106.089.107.214.036.299l-.564.671-.353-.296.57-.68m1.004.794l-.595.708-.373-.313.6-.714c.067-.08.218-.104.32-.019.115.097.127.244.048.338" fill="#0A0B09"/></g></svg>