<svg width="26" height="16" xmlns="http://www.w3.org/2000/svg" xmlns:xlink="http://www.w3.org/1999/xlink"><defs><path id="a" d="M.003.021h25.882V16H.003z"/></defs><g fill="none" fill-rule="evenodd"><mask id="b" fill="#fff"><use xlink:href="#a"/></mask><path d="M5.223 7.544h2.57V6.487h-2.57v1.057zm11.523-2.507v5.948h1.616V6.529h1.762l.476.539v2.445h-1.906v1.472h3.502V6.094l-.89-1.057h-4.56zm-2.404 0v1.865l-.27.248h-1.72v3.835h1.782V8.56l1.347.02.643-.6V5.036h-1.782zm-4.394 0v2.922l.642.622 1.43-.021V7.15l-.269-.248V5.037H9.948zm-6.259 0v5.948h1.534V8.477h2.59v1.057H5.554v1.45h2.902l.87-.6v-1.99l-.394-.373.394-.352v-1.7l-.787-.932h-4.85zm9.264-3.482c6.68 0 12.083 2.87 12.083 6.466 0 3.562-5.403 6.445-12.083 6.445-6.635 0-12.041-2.883-12.041-6.445 0-3.595 5.406-6.466 12.041-6.466zm0-1.534C5.81.021 0 3.6 0 8.021 0 12.408 5.81 16 12.953 16c7.183 0 12.932-3.592 12.932-7.98 0-4.42-5.749-7.999-12.932-7.999z" fill="#393939" mask="url(#b)"/></g></svg>