<svg width="51" height="16" xmlns="http://www.w3.org/2000/svg"><path d="M31.907.114C42.614.934 50.493 3.7 50.493 6.989c0 2.652-5.128 4.965-12.732 6.19l2.134 2.528h-3.989L25.394 3.255l-7.023 8.318c2.123.168 4.399.26 6.766.26 1.114 0 2.208-.021 3.275-.06l2.124 2.184c-1.687.1-3.436.154-5.229.154a84.39 84.39 0 01-8.71-.438l-1.908 2.262h-3.99l2.306-2.73C5.32 11.984.122 9.657.122 6.988c0-3.222 7.57-5.945 17.951-6.824l-1.317 2.272C9.316 3.19 4.11 4.92 4.11 6.932c0 1.821 4.267 3.41 10.597 4.255L23.4.893V.892h3.99l-.001.001 8.637 10.23c6.076-.858 10.137-2.414 10.137-4.191 0-2.02-5.25-3.756-12.745-4.505L31.907.114" fill="#393939" fill-rule="evenodd"/></svg>