<svg width="18" height="16" xmlns="http://www.w3.org/2000/svg"><g fill="#393939" fill-rule="evenodd"><path d="M8.931 4.323c2.28 0 7.786 4.726 8.476 5.327.047.04.112.093.23.08.173-.02.178-.284.178-.284s.04-.6.04-1.205c0-.762-.594-1.428-.594-1.428S11.09.018 8.93.018.602 6.813.602 6.813.007 7.48.007 8.241c0 .605.04 1.205.04 1.205s.006.264.178.283a.273.273 0 00.23-.08c.691-.6 6.196-5.326 8.476-5.326"/><path d="M8.931 10.575c2.28 0 7.786 4.727 8.476 5.327a.271.271 0 00.23.08c.173-.02.178-.283.178-.283s.04-.6.04-1.205c0-.762-.594-1.428-.594-1.428S11.09 6.27 8.93 6.27.602 13.066.602 13.066s-.595.666-.595 1.428c0 .605.04 1.205.04 1.205s.006.263.178.283a.273.273 0 00.23-.08c.691-.6 6.196-5.327 8.476-5.327"/></g></svg>