<svg width="53" height="20" xmlns="http://www.w3.org/2000/svg"><g fill="none" fill-rule="evenodd"><path fill="#FFFFFE" d="M.07 19.938h52.096V.091H.07z"/><path d="M4.292 9.656V11.3h3.216c.622 0 .924-.06 1.084-.225.189-.18.264-.508.264-1.114 0-.95-.236-1.204-1.103-1.204l-5.384-.003V7.538h5.535c1.3 0 1.904.12 2.29.449.472.396.595.8.595 1.944 0 1.174-.075 1.578-.368 1.952-.311.389-1.018.636-1.8.636H2.368V9.656h1.923m19.864 0V11.3h3.216c.622 0 .924-.06 1.084-.225.189-.18.264-.508.264-1.114 0-.95-.236-1.204-1.103-1.204l-5.385-.003V7.538h5.535c1.302 0 1.905.12 2.292.449.471.396.594.8.594 1.944 0 1.174-.076 1.578-.368 1.952-.311.389-1.018.636-1.8.636H22.23V9.656h1.924m-6.277-2.162c1.537.007 1.99.104 2.405.508.396.396.509.8.509 1.847 0 1.391-.057 1.667-.406 2.034-.433.464-1.094.636-2.564.658 0 0-3.31 0-3.791-.037-.472-.045-.858-.157-1.132-.33-.575-.358-.735-.777-.735-1.869 0-.112.047-1.339.047-1.339.123-.874.604-1.3 1.603-1.405.32-.03 4.064-.067 4.064-.067" fill="#393939"/><path d="M17.189 11.345c.896-.008 1.301-.09 1.49-.3.132-.15.179-.456.179-1.129 0-.912-.16-1.129-.868-1.181a9.813 9.813 0 00-.886-.03c-1.17 0-1.858.015-2.15.045-.66.06-.858.314-.858 1.129s.075 1.137.292 1.286c.208.142.613.187 1.735.187l1.066-.007" fill="#FFFFFE"/><path d="M40.305 8.682h-5.048c-.584 0-.963.03-1.114.143-.226.164-.301.433-.301 1.18 0 .711.056.943.235 1.115.227.21.7.262 1.727.262h1.424c.952 0 1.324-.112 1.324-.568 0-.03 0-.174-.01-.272h-3.298V9.49h5.048l.01.703v.217c0 1.114-.207 1.766-.867 1.997-.425.15-.547.158-1.801.158l-2.415-.008c-1.442-.015-2.027-.105-2.46-.396-.5-.352-.66-.8-.66-1.877 0-.06.037-1.144.075-1.406.038-.336.198-.636.452-.86.406-.366.915-.486 2.047-.509l5.632-.022v1.196m1.475.798h8.076v1.05h-6.107c.006.306.022.534.127.635.16.164.372.165.994.165h4.998l-.003 1.115h-5.927c-.783 0-1.49-.246-1.801-.635-.292-.374-.356-1.03-.356-2.33m.07-.803c.015-.387.077-.55.332-.763.386-.33.99-.449 2.291-.449h5.39v1.216l-8.013-.004" fill="#393939"/></g></svg>