<svg width="26" height="16" xmlns="http://www.w3.org/2000/svg" xmlns:xlink="http://www.w3.org/1999/xlink"><defs><path d="M12.989 0C5.815 0 0 3.57 0 7.974s5.815 7.974 12.989 7.974 12.989-3.57 12.989-7.974S20.163 0 12.989 0zM1.198 7.974c0-3.89 5.279-7.042 11.791-7.042 6.512 0 11.791 3.153 11.791 7.042 0 3.89-5.279 7.043-11.791 7.043-6.512 0-11.791-3.153-11.791-7.043zm9.635-4.761v1c.89-.466.918.315.918.315l.055 7.92c0 .52-.452.534-.452.534l-.617-.014-.013.822h4.535l-.014-.794-.562-.028c-.52-.096-.48-.589-.48-.589V2.31l-1.383-.014-1.987.918zM15.15 7.07l7.097-.041c.644-.041.672-.33.672-.33l.616-1.438-6.645-.027v-.288l-1.74-.014V7.07zM2.443 5.154l.622 1.541c.237.384.475.33.475.33h7.307V5.153H2.443zm.932 2.52l.621 1.542c.238.384.475.33.475.33h6.321V7.674H3.375zm11.788 1.821l6.18-.014c.355.014.547-.301.547-.301l.685-1.439-7.426-.027.014 1.781zm-5.96 1.42l-4.421.019.64 1.388s.2.384.657.347h3.124l1.59-.712.017-1.772-1.607.73zm5.946-.666v1.658l1.576-.014 1.028.78 2.301.014c.507-.068.521-.383.521-.383l.63-1.33H17.78l-1.028-.753-1.603.028z" id="a"/></defs><g fill="none" fill-rule="evenodd"><mask id="b" fill="#fff"><use xlink:href="#a"/></mask><use fill="#393939" xlink:href="#a"/><path d="M12.989 0C5.815 0 0 3.57 0 7.974s5.815 7.974 12.989 7.974 12.989-3.57 12.989-7.974S20.163 0 12.989 0zM1.198 7.974c0-3.89 5.279-7.042 11.791-7.042 6.512 0 11.791 3.153 11.791 7.042 0 3.89-5.279 7.043-11.791 7.043-6.512 0-11.791-3.153-11.791-7.043zm9.635-4.761v1c.89-.466.918.315.918.315l.055 7.92c0 .52-.452.534-.452.534l-.617-.014-.013.822h4.535l-.014-.794-.562-.028c-.52-.096-.48-.589-.48-.589V2.31l-1.383-.014-1.987.918zM15.15 7.07l7.097-.041c.644-.041.672-.33.672-.33l.616-1.438-6.645-.027v-.288l-1.74-.014V7.07zM2.443 5.154l.622 1.541c.237.384.475.33.475.33h7.307V5.153H2.443zm.932 2.52l.621 1.542c.238.384.475.33.475.33h6.321V7.674H3.375zm11.788 1.821l6.18-.014c.355.014.547-.301.547-.301l.685-1.439-7.426-.027.014 1.781zm-5.96 1.42l-4.421.019.64 1.388s.2.384.657.347h3.124l1.59-.712.017-1.772-1.607.73zm5.946-.666v1.658l1.576-.014 1.028.78 2.301.014c.507-.068.521-.383.521-.383l.63-1.33H17.78l-1.028-.753-1.603.028z" fill="#393939" mask="url(#b)"/></g></svg>