<svg width="44" height="18" xmlns="http://www.w3.org/2000/svg"><g fill="none"><path d="M21.992 16.869c11.476 0 20.78-3.513 20.78-7.857s-9.304-7.87-20.78-7.87c-11.49 0-20.794 3.526-20.794 7.87s9.304 7.857 20.794 7.857" stroke="#393939"/><path d="M2.016 9.012c0-3.901 8.955-7.079 19.976-7.079 11.047 0 19.99 3.178 19.99 7.079 0 3.915-8.943 7.052-19.99 7.052-11.02 0-19.976-3.137-19.976-7.052z"/><path d="M20.255 4.656c1.011.275 2.959 1.125 4.834 1.125 1.273 0 2.775-.818 2.775-1.247 0-.107 0-.214-.268-.214-.295 0-.134.026-.872.147-.697.107-1.555.08-2.225.08-1.823-.026-4.062-.402-4.96-.563a12.478 12.478 0 00-2.119-.187c-3.338 0-4.692 1.34-4.706 2.668-.013.71.51 1.434 1.287 1.434 1.395 0 2.199-1.448 2.266-1.97 0 0 .027-.094-.054-.161-.04-.027-.147-.014-.187.08-.188.442-.939.952-1.475 1.046-.496.094-.831-.174-.858-.59-.054-1.02 1.1-2.132 3.687-2.132.737 0 1.676.201 2.708.442l.026.006c-.415.093-1.88 1.222-3.03 2.984-.308.04-1.594.148-2.023.63a.475.475 0 00-.081.175c.027.107.107.16.228.067.268-.308 1.354-.43 1.609-.443-1.582 2.226-3.044 3.687-4.344 3.687-.134 0-.268.014-.416-.026-.523-.121-.831-.67-.831-1.167 0-.657.63-1.367.992-1.501.12-.054.174-.121.174-.175 0-.08-.053-.134-.2-.134-1.248.309-1.918 1.327-1.904 2.159.026 1.367 1.059 2.131 2.225 2.131 1.636 0 2.467-.71 5.135-5.027 1.06-.108 1.582-.174 2.118-.268 0 0 .161.388.563.388.067.014.054-.053.094-.2-.174-.014-.375-.135-.375-.282.16-.08.295-.175.415-.268.175-.161.349-.496.349-.724a.47.47 0 00-.402-.456c-.43-.067-.764.281-.805.858 0 .147.054.322.054.322s-.939.16-1.743.2c.992-1.675 1.904-2.265 2.172-2.506.054-.04.188-.188.201-.215a.15.15 0 00-.034-.173zm1.737 10.858c-10.699 0-19.346-2.909-19.346-6.502 0-3.58 8.647-6.49 19.346-6.49 10.685 0 19.36 2.91 19.36 6.49 0 3.593-8.675 6.502-19.36 6.502zm5.068-5.201c-.268.241-.59.563-1.328.563-.429 0-.764-.349-.683-.791.053-.349.174-.523.429-.617.12.348.348.536.737.536.442-.013.697-.415.71-.764 0-.295-.187-.67-.723-.697-.496-.027-.872.201-1.408.818 0 0 .134-.912-.872-.885-.107 0-.214 0-.321.053-.55.175-1.26 1.06-1.824 1.743.027-.134.027-.268.027-.402 0-.389-.147-.898-.416-1.166-.053-.054-.107-.054-.16-.054-.175 0-.322.148-.322.376.134.134.308.469.308.79 0 .322-.094.912-.228 1.14-.51.872-1.153 1.435-1.93 1.314-.416-.094-.698-.496-.617-1.1.04-.348.255-.83.456-1.126.335-.455.885-.925 1.689-1.045 0 0 .04-.161-.067-.242-.04-.067-.094-.147-.281-.147-1.14.04-1.837.858-2.24 1.662-.147.282-.362.684-.482.939 0 0-.107.295-.603.67-.255.201-.336.268-.376.255.014.094.08.228.201.335.04.027.175-.053.228-.08.63-.362.697-.537.697-.537.134.751.778 1.14 1.489 1.14.978 0 1.876-.885 2.4-1.662.55-.818 1.3-1.623 1.3-1.623.295-.281.603-.469.79-.469.175.013.296.16.256.322-.068.281-.161.55-.35.885l-1.46 2.48h1.14c.656-1.233.683-1.274 1.327-2.453.174.656.522.911 1.085.925.483.013.818-.014 1.18-.202-.094.376-.04.751.08 1.006.135.308.403.697 1.06.71.79 0 1.568-.348 1.796-.55.067.39.255.59.751.59 1.006-.026 1.89-1.058 2.427-1.729.094-.12.214-.322.214-.375 0-.08-.107-.134-.16-.134-.054 0-.148.12-.202.187-.254.269-1.314 1.368-1.89 1.395.12 0-.2.067-.228-.188-.013-.16.12-.362.174-.469l2.87-5.081h-1.06L30.92 9.48c-.133-.268-.334-.898-1.125-.911-1.314-.014-1.824.884-2.735 1.743z" fill="#393939"/><path d="M29.848 9.2c-.47-.054-1.059.348-1.542.938-.24.295-.496.858-.536 1.194-.054.335.04.67.161.764.12.094.657.375 1.488-.47.47-.469.925-1.233.925-1.233l-.147-.04c.281-.523.228-1.086-.349-1.153M19.98 7.323s.135.013.336-.215c.08-.08.214-.322.188-.482-.014-.08-.054-.175-.148-.161-.2.04-.322.134-.375.335a.866.866 0 000 .523" fill="#393939"/></g></svg>