<svg width="20" height="16" xmlns="http://www.w3.org/2000/svg" xmlns:xlink="http://www.w3.org/1999/xlink"><defs><path id="a" d="M0 0h19.914v15.933H0z"/></defs><g fill="none" fill-rule="evenodd"><mask id="b" fill="#fff"><use xlink:href="#a"/></mask><path d="M9.961 0a58.1 58.1 0 00-5.988.313C2.355.483.983 1.076.44 2.575c-.33.923-.431 1.88-.44 2.83v.338c0 .398.017.796.034 1.186.076 1.575.186 3.117.457 4.583.153.787.34 1.592.703 2.295.568 1.101 1.72 1.635 3.1 1.804 1.864.237 3.77.322 5.667.322v-.677c-2.693 0-4.98-.17-6.09-.458-.966-.237-1.77-.915-2.1-2.304-.678-2.871-.848-5.82-.543-8.818C1.364 2.33 2.202 1.28 4.16.957 5.887.677 8.073.593 9.961.593V0zm0 10.936a4.4 4.4 0 00-.61.033c-.813.102-1.295.517-1.499 1.186-.27.89-.584 1.762-.872 2.635l-1.957-.288-.83-13.045 1.347-.178c.474 1.957.932 3.905 1.414 5.853.33 1.347.839 2.118 1.483 2.321.703.212 1.11.322 1.524.322v1.16zm9.953-5.532c-.008-.948-.11-1.906-.449-2.829-.542-1.5-1.914-2.092-3.532-2.262A57.627 57.627 0 009.961 0v.593c1.89 0 4.066.085 5.786.364 1.956.322 2.795 1.372 2.93 2.72.306 2.998.136 5.946-.541 8.817-.33 1.39-1.135 2.067-2.093 2.304-1.118.288-3.388.458-6.082.458v.677c1.89 0 3.804-.085 5.659-.322 1.372-.17 2.533-.703 3.092-1.804.364-.703.559-1.508.703-2.295.27-1.466.38-3.008.457-4.583.017-.39.034-.788.042-1.186v-.339zm-6.97 9.386c-.297-.873-.602-1.745-.873-2.635-.212-.669-.686-1.084-1.508-1.186a4.197 4.197 0 00-.602-.033V9.775c.407 0 .822-.11 1.525-.322.635-.203 1.144-.974 1.483-2.32.482-1.949.94-3.897 1.397-5.854l1.355.178-.83 13.045-1.948.288z" fill="#393939" mask="url(#b)"/></g></svg>