<svg width="32" height="16" xmlns="http://www.w3.org/2000/svg" xmlns:xlink="http://www.w3.org/1999/xlink"><defs><path id="a" d="M.002.026h31.83v15.972H.002z"/></defs><g fill="none" fill-rule="evenodd"><mask id="b" fill="#fff"><use xlink:href="#a"/></mask><path d="M15.916 14.994c-7.748 0-14.052-3.132-14.052-6.981 0-3.85 6.304-6.98 14.052-6.98 7.748 0 14.051 3.13 14.051 6.98 0 3.85-6.303 6.981-14.051 6.981zm0-14.968C7.126.026 0 3.602 0 8.013S7.126 16 15.916 16s15.916-3.576 15.916-7.987S24.706.026 15.916.026z" fill="#393939" mask="url(#b)"/><path d="M14.368 4.431h.257c.09 0 .16.07.16.16v7.302a.17.17 0 00.171.17h1.912a.17.17 0 00.172-.17v-7.78a.172.172 0 00-.172-.171h-2.5c-.025 0-.025.023-.025.042v.406c0 .017 0 .041.025.041m4.312 7.633h1.876c.091 0 .188-.072.225-.169l1.602-5.04c0-.001.018-.07.078-.07.057 0 .076.07.077.07l1.618 5.04c.039.098.134.169.226.169h1.877a.148.148 0 00.124-.06.18.18 0 00.028-.15l-2.612-7.799c-.04-.1-.143-.113-.227-.113h-2.997a.045.045 0 00-.043.042v.406c0 .02.022.041.043.041h.22c.096 0 .16.056.16.14a.274.274 0 01-.018.092l-2.41 7.192a.172.172 0 00.029.149.15.15 0 00.123.06M5.906 4.431c.09 0 .161.07.161.16v7.302c0 .096.075.17.17.17h1.86a.17.17 0 00.17-.17v-3.07c0-.068.03-.106.084-.106.064 0 .094.043.118.078l.007.01 2.19 3.072c.07.107.199.187.298.187h2.207c.052 0 .11-.037.136-.089.029-.055.021-.118-.02-.178L10.49 7.844l-.017-.028a.127.127 0 01-.013-.036c-.002-.008-.005-.015-.005-.026 0-.033.016-.066.033-.102l.002-.004 2.337-3.459a.163.163 0 000-.165.156.156 0 00-.135-.082h-2.095c-.1 0-.229.08-.3.186L8.476 6.704c-.057.084-.112.088-.123.088h-.002c-.05 0-.085-.034-.085-.086V4.113a.171.171 0 00-.17-.171H5.65a.044.044 0 00-.042.042v.406c0 .021.02.041.042.041h.257" fill="#393939"/></g></svg>