<svg width="23" height="16" xmlns="http://www.w3.org/2000/svg"><path d="M11.136 16c3.687 0 6.956-1.287 8.983-3.27l-1.826.008c-1.726 1.452-4.25 2.366-7.112 2.366-5.337 0-9.503-3.18-9.503-7.104 0-4.525 4.166-7.104 9.503-7.104.34.001.611.157.408.451-1.11 1.336-4.267 5.632-4.842 6.562-1.137 1.836-1.11 4.096 1.674 4.254h11.705c.598 0 .75-.28.965-.573A5.977 5.977 0 0022.271 8c-.002-3.373-2.374-5.9-5.866-7.143l-.54.808c2.901 1.07 4.82 3.233 4.82 6.335a5.51 5.51 0 01-.228 1.567c-.13.439-.383.809-.864.809H10.25c-1.196 0-.734-1.234-.29-1.833.642-1.152 4.163-5.95 5.01-6.845.216-.328.822-1.007-.013-1.267A16.585 16.585 0 0011.137 0C4.985 0 .002 3.158 0 8c-.003 4.888 4.986 8 11.136 8" fill="#393939" fill-rule="evenodd"/></svg>