<svg width="36" height="16" xmlns="http://www.w3.org/2000/svg" xmlns:xlink="http://www.w3.org/1999/xlink"><defs><path id="a" d="M0 .096h35.954v15.8H0z"/><path id="c" d="M0 15.904h35.954V.104H0z"/></defs><g fill="none" fill-rule="evenodd"><g transform="translate(0 .009)"><mask id="b" fill="#fff"><use xlink:href="#a"/></mask><path d="M17.977 14.754a6.745 6.745 0 110-13.49 6.745 6.745 0 010 13.49zM35.954 3.76h-11.34A7.892 7.892 0 0017.947.096a7.892 7.892 0 00-6.668 3.665H0l1.147 1.15h9.525a7.85 7.85 0 00-.419 1.294H2.44l1.147 1.15h6.488a8.005 8.005 0 00-.028.64c0 .221.011.439.029.655H4.879L6.027 9.8h4.23c.104.447.245.88.421 1.294h-3.36l1.148 1.15h2.822a7.892 7.892 0 006.659 3.651 7.892 7.892 0 006.658-3.65h2.883l1.148-1.15h-3.421a7.84 7.84 0 00.422-1.295h4.29l1.148-1.15h-5.258c.018-.216.03-.434.03-.654 0-.216-.012-.43-.029-.64h6.55l1.147-1.15H25.64a7.841 7.841 0 00-.419-1.295h9.586l1.147-1.15z" fill="#393939" mask="url(#b)"/></g><path fill="#393939" d="M14.509 8.998l-.916-2.77h-1.038v3.558h.758V7.148l.8 2.638h.785l.802-2.638v2.638h.758V6.228h-1.041zm6.603-.164l-1.426-2.606h-.839v3.558h.704V7.292l1.426 2.515.848-.02v-3.56h-.704z"/><mask id="d" fill="#fff"><use xlink:href="#c"/></mask><path fill="#393939" mask="url(#d)" d="M17.284 9.784h.722V6.225h-.722zm5.363 0h.722V6.225h-.722z"/></g></svg>