<svg width="54" height="4" xmlns="http://www.w3.org/2000/svg"><g fill="none"><path d="M8.045 3.03V1.186c0-.589.415-.94.988-.94h4.975c.573 0 .988.351.988.94V3.03c0 .589-.415.94-.988.94H9.033c-.573 0-.988-.351-.988-.94zM.238.245h6.1c.583 0 .835.557.835 1.072v.43c0 .652-.389 1.125-1.066 1.125H1.09V3.97H.238V.245zm15.677 0h6.126c.435 0 .835.29.835.746v.967c0 .405-.316.62-.673.715.515.241.62.777.673 1.297h-.835c-.037-.562-.279-1.098-.925-1.098h-4.35V3.97h-.851V.245zm14.667 0v.746H24.92c-.226 0-.32.163-.32.379 0 .204.105.362.32.362h4.618c.757 0 1.167.363 1.167 1.135 0 .646-.347 1.103-1.02 1.103H23.88v-.746h5.658c.194 0 .278-.168.278-.341 0-.2-.042-.41-.278-.41H24.74c-.62 0-.977-.478-.977-1.072 0-.74.399-1.155 1.156-1.155h5.662zm7.629 0v.746h-5.59c-.131 0-.179.126-.179.237V3.04c0 .11.069.183.179.183h5.59v.746h-5.59c-.61 0-1.024-.42-1.024-1.035V1.338c0-.703.299-1.092 1.024-1.092h5.59zm.914 0h.856v1.45h4.944V.245h.877V3.97h-.877V2.441h-4.944V3.97h-.856V.245zm7.576 0h6.987v.746H47.55v.72h6.137v.74H47.55v.773h6.137v.746H46.7V.245z" fill="#393939"/><path d="M9.39 3.224h4.319c.262 0 .478-.115.478-.415V1.406c0-.299-.21-.415-.478-.415H9.39c-.268 0-.483.116-.483.415V2.81c0 .3.22.415.483.415zM1.09.991v1.135h4.854c.21 0 .394-.084.394-.32v-.42c0-.247-.147-.394-.394-.394H1.09zm15.676 0v1.135h5.065c.168 0 .21-.142.21-.284v-.504c0-.242-.09-.347-.337-.347h-4.938z" fill="#FFF"/></g></svg>