<svg width="24" height="16" xmlns="http://www.w3.org/2000/svg"><g fill="none" fill-rule="evenodd"><path d="M11.591 14.707h-.057c.728-.832 2.534-3.097 2.776-5.382h6.284l.026-.007c-.862 3.076-4.577 5.39-9.029 5.39zm-9.03-5.382h7.605c1.91 1.227 1.384 4.35 1.15 5.379-4.327-.093-7.906-2.37-8.754-5.379zm8.926-8.13c-.683.712-2.198 2.53-2.715 5.133H2.64c.984-2.924 4.564-5.098 8.848-5.132zm.282 0c4.25.06 7.794 2.225 8.773 5.133H12.72c-1.463-1.117-1.115-4.126-.951-5.132zM11.59.023C5.225.022.066 3.572.066 7.952c0 4.377 5.16 7.927 11.525 7.927s11.524-3.55 11.524-7.928c0-4.38-5.16-7.93-11.524-7.93z" fill="#393939"/><path d="M20.85 8.39c0 .187-.158.327-.352.327h-.213v-1.34c0-.083-.073-.153-.164-.153h-2.726v1.493h-.578V6.896h3.55c.274 0 .484.213.484.473l-.001 1.02zM2.344 8.387l3.294.001c.098 0 .166-.059.164-.143l-.001-.272H2.348v-.605c0-.265.224-.473.498-.473h3.533v.328H3.066c-.105 0-.14.062-.14.145l-.004.277h3.459v.6c0 .267-.22.471-.497.471H2.696c-.194 0-.352-.141-.352-.33zm5.065-.152c0 .083.073.153.167.153h3.283v.328h-3.53a.486.486 0 01-.498-.473v-.875c0-.26.223-.473.498-.473h3.53v.328H7.576c-.094 0-.167.071-.167.154v.858zm4.48-1.34v1.822h-.58V6.896h.58zm4.477.473v.875a.486.486 0 01-.497.473h-3.031a.486.486 0 01-.498-.473v-.875c0-.26.222-.473.498-.473h3.031c.274 0 .497.213.497.473zm-.745-.145h-2.537c-.093 0-.167.07-.167.153v.858c0 .084.074.154.167.154h2.537c.094 0 .168-.07.167-.153l.001-.86c-.001-.082-.074-.152-.168-.152z" fill="#FFFFFE"/></g></svg>