<svg width="20" height="18" xmlns="http://www.w3.org/2000/svg"><path d="M18.897 10.226L1.01 7.048s.05-2.001.088-3.062c.038-1.062.258-1.705.698-2.095.605-.534 1.309-.666 2.991-.754C8.686.923 12.65.956 17.62 1.302c.517.039.715.132.814.204.22.148.247.319.308 1.204.05.71.16 3.095.16 3.095s-5.867-.214-8.754-.214c-.814 0-1.468.006-2.001.017-.358.005-.523.038-.66.104l11.414 1.94v2.574h-.005zM1 7.724l17.886 3.178s-.05 2.002-.088 3.063c-.039 1.061-.258 1.704-.698 2.095-.605.533-1.309.665-2.991.753-3.899.214-7.863.182-12.833-.165-.517-.038-.715-.132-.814-.203-.22-.149-.248-.32-.308-1.204C1.115 14.537 1 12.15 1 12.15s5.867.214 8.753.214c.814 0 1.468-.006 2.002-.017.357-.005.522-.038.66-.104L1 10.298V7.724z" fill="#393939" stroke="#FFF" stroke-width=".5"/></svg>