<svg width="16" height="16" xmlns="http://www.w3.org/2000/svg"><g fill="#393939"><path d="M15.877 7.995a7.87 7.87 0 01-7.87 7.87 7.87 7.87 0 110-15.74 7.87 7.87 0 017.87 7.87zm-2.416 3.432a3.694 3.694 0 00-1.947-.956.173.173 0 00-.2.17v.268c0 .08-.06.17-.14.17H11c-.205-.004-.243-.256-.201-.405.437-1.568.544-2.52.539-3.213-.006-.737-.024-1.47-.356-2.442-.32-.934-.612-1.85-2.156-3.248a.548.548 0 00-.352-.15 6.41 6.41 0 00-2.275.254c-.22.065-.187.218-.066.321.583.5 1.373 1.249 1.919 2.185-.346.034-.61-.158-.832-.37a10.46 10.46 0 00-2.09-1.528c-.105-.059-.208-.083-.313-.023a5.849 5.849 0 00-1.64 1.361c-.089.104-.031.185.057.232.576.306 1.48.886 2.308 1.64-.17.142-.437.095-.824-.109a9.264 9.264 0 00-2.009-.757c-.117-.03-.242.003-.303.107a6.08 6.08 0 00-.705 2.074.256.256 0 00.216.292c1.274.223 3.545.822 3.923 3.44.032.228-.176.43-.45.3l-1.149-.538a.322.322 0 00-.13-.034H2.307c-.256 0-.362.246-.195.437.434.5.832 1.039 1.172 1.61.03.051.065.07.124.07h.788c.054 0 .1-.012.146-.04l.744-.435c.046-.027.092-.026.145-.026h5.94c.08 0 .144.05.144.13v.293c0 .106.095.187.2.17a3.698 3.698 0 001.947-.955.201.201 0 000-.295z"/><path d="M10.152 9.566a1.194 1.194 0 11-2.387 0 1.194 1.194 0 012.387 0"/></g></svg>