<svg width="27" height="16" xmlns="http://www.w3.org/2000/svg"><path d="M26.062 5.702c-.748-2.758-4.318-4.15-4.318-4.15-.953-.348-.571.2-.571.2s4.108 1.89 4.108 4.523c0 3.26-4.477 4.236-4.477 4.236 4.072-1.296 4.083-4.06 4.083-4.06-.071-2.765-3.714-4.7-3.714-4.7-1.405-.796-2.168-.996-2.168-.996-1.833-.614-1.238.1-1.238.1s5.53 1.743 5.53 5.588c0 3.927-7.709 5.188-7.709 5.188 7.25-1.345 7.252-5.156 7.252-5.156 0-3.432-5.073-5.62-5.073-5.62-.762-.415-2.054-.75-2.054-.75-1.197-.254-.518.269-.518.269 4.858 2.839 4.858 5.977 4.858 5.977 0 3.487-3.197 4.358-3.197 4.358-.929.362-2.726.65-2.726.65-.291.087-.495.287-.495.521 0 .095.023.189.093.263.175.187.766.627.766.627.211.199.335.446.335.712 0 .655-.753 1.187-1.688 1.199h-.069c-.935-.012-1.688-.544-1.688-1.199 0-.266.124-.513.336-.712 0 0 .59-.44.766-.627a.372.372 0 00.092-.263c0-.234-.204-.434-.494-.52 0 0-1.798-.29-2.727-.65 0 0-3.197-.872-3.197-4.36 0 0 0-3.137 4.858-5.976 0 0 .679-.523-.518-.268 0 0-1.292.334-2.054.75 0 0-5.072 2.187-5.072 5.62 0 0 0 3.81 7.251 5.155 0 0-7.71-1.26-7.71-5.188 0-3.845 5.531-5.588 5.531-5.588s.595-.714-1.238-.1c0 0-.762.2-2.167.997 0 0-3.644 1.934-3.715 4.698 0 0 .011 2.765 4.084 4.06 0 0-4.477-.975-4.477-4.235 0-2.632 4.108-4.523 4.108-4.523s.38-.548-.572-.2c0 0-3.57 1.392-4.318 4.15 0 0-.226 1.04.105 1.799.402.93 1.45 2.47 4.118 3.332 0 0 1.214.5 6.073 1.47l.286.066s.209.091.06.256l-.67.576s-.982.755.42 1.39c0 0 .854.292 1.457.937 0 0 .387.368 1.044.387v.002h.044l.005.001h.063v-.001c.665-.015 1.057-.39 1.057-.39.604-.644 1.457-.935 1.457-.935 1.402-.636.42-1.391.42-1.391l-.669-.576c-.15-.165.06-.256.06-.256l.285-.065c4.859-.972 6.073-1.47 6.073-1.47 2.668-.863 3.716-2.403 4.119-3.333.33-.759.104-1.799.104-1.799" fill="#393939" fill-rule="evenodd"/></svg>