<svg width="29" height="17" xmlns="http://www.w3.org/2000/svg"><path d="M14.498 16.833c-5.163 0-9.97-1.6-12.547-4.177C.675 11.379 0 9.913 0 8.416 0 6.125 1.538 3.988 4.332 2.4 7.054.852 10.665 0 14.498 0c5.163 0 9.97 1.6 12.547 4.177 1.277 1.276 1.951 2.742 1.951 4.24 0 1.496-.674 2.962-1.95 4.239-2.577 2.576-7.385 4.177-12.548 4.177zm-2.163-5.704c-.019-.056-.051-.056-.07 0l-.536 1.49a.205.205 0 01-.142.12l-2.674.464c-.058.01-.058.026 0 .036l2.674.441c.058.01.122.063.143.118l.533 1.444c.02.056.054.056.073 0l.513-1.443a.202.202 0 01.141-.119l2.626-.441c.058-.01.058-.026 0-.037l-2.626-.463a.202.202 0 01-.14-.12l-.515-1.49zM9.453 1.942c-.043-.125-.115-.126-.16 0l-1.204 3.35a.459.459 0 01-.319.268L1.76 6.603c-.13.023-.13.059.001.08l6.009.994a.46.46 0 01.321.265l1.2 3.246c.046.124.12.124.164-.001l1.151-3.244a.453.453 0 01.319-.267l5.901-.992c.131-.022.131-.058 0-.081l-5.9-1.043a.453.453 0 01-.317-.27L9.453 1.942zm7.871 5.307c-.019-.056-.05-.056-.07-.001l-.536 1.491a.205.205 0 01-.142.12l-2.674.463c-.058.01-.058.027 0 .036l2.674.442c.058.01.122.063.143.118l.533 1.444c.02.055.054.055.073 0l.513-1.443a.202.202 0 01.141-.12l2.626-.44c.058-.01.058-.027 0-.037l-2.626-.463a.202.202 0 01-.14-.12l-.515-1.49zm7.207 0c-.02-.056-.051-.056-.071-.001l-.536 1.491a.205.205 0 01-.142.12l-2.673.463c-.058.01-.058.027 0 .036l2.673.442c.058.01.123.063.143.118l.534 1.444c.02.055.053.055.073 0l.512-1.443a.202.202 0 01.142-.12l2.626-.44c.058-.01.058-.027 0-.037l-2.626-.463a.202.202 0 01-.14-.12l-.515-1.49zm-2.217-4.435c-.02-.056-.052-.056-.071 0l-.536 1.49a.204.204 0 01-.142.12l-2.674.464c-.058.01-.058.026 0 .035l2.674.442c.058.01.122.063.143.118l.534 1.444c.02.056.053.055.073 0l.512-1.443a.202.202 0 01.142-.12l2.625-.44c.058-.01.059-.026 0-.037l-2.625-.463a.202.202 0 01-.141-.12l-.514-1.49zm-2.587 7.76c-.02-.055-.052-.055-.072 0l-.535 1.491a.204.204 0 01-.142.12l-2.674.463c-.058.01-.058.026 0 .036l2.674.442c.058.01.122.063.143.118l.533 1.444c.021.055.054.055.074 0l.512-1.443a.201.201 0 01.142-.12l2.625-.44c.059-.01.059-.027 0-.037l-2.625-.463a.202.202 0 01-.141-.12l-.514-1.49z" fill="#393939" fill-rule="evenodd"/></svg>