<svg width="17" height="17" xmlns="http://www.w3.org/2000/svg"><g fill="#393939"><path d="M8.011.291a7.755 7.755 0 100 15.51 7.755 7.755 0 000-15.51zm0 14.815a7.06 7.06 0 110-14.12 7.06 7.06 0 010 14.12z" stroke="#393939" stroke-width=".5"/><path d="M6.466 2.772a5.498 5.498 0 011.545-.22c.536 0 1.055.076 1.544.22l-1.544 3.42-1.545-3.42"/><path d="M10.96 3.41c.58.368 1.085.843 1.49 1.396l-2.534 5.607-.978-2.174H7.085l-.978 2.174-2.53-5.612a5.524 5.524 0 011.485-1.392L7.085 7.9h1.86l2.016-4.49M2.702 6.624a5.503 5.503 0 002.857 6.34l-2.857-6.34"/><path d="M6.491 13.328a5.501 5.501 0 003.039 0L8.01 9.957l-1.52 3.37m3.974-.363a5.495 5.495 0 002.86-6.328l-2.86 6.328"/></g></svg>