<svg width="16" height="16" xmlns="http://www.w3.org/2000/svg"><g fill="none" fill-rule="evenodd"><path d="M7.987 13.543a5.544 5.544 0 01-5.284-3.868H13.27a5.544 5.544 0 01-5.283 3.868zm0-11.086a5.544 5.544 0 015.283 3.868H2.703a5.544 5.544 0 015.284-3.868zm6.903.28a.312.312 0 01.493.035l.389.584c.11.18.201.155.201-.057V.411a.386.386 0 00-.385-.384h-2.914c-.212 0-.236.088-.055.197l.673.441a.319.319 0 01.04.498l-.206.205a.478.478 0 01-.535.081A8.035 8.035 0 007.987 0 7.988 7.988 0 000 7.986C0 12.396 3.577 16 7.987 16s7.986-3.603 7.986-8.014c0-1.567-.44-3.029-1.229-4.275-.088-.177-.2-.618-.063-.76l.209-.215z" fill="#393939"/><path d="M9.07 7.129h1.794v.237h-.449l.634 1.083.555-1.083h-.317V7.13h1.24v.237h-.422l-.818 1.532h-.977l-.82-1.533h-.42V7.13zm-2.06 0v.237h.422v1.241H7.01v.29h2.508V8.08h-.264c-.027.423-.396.528-.555.528H8.25v-1.24h.423V7.13H7.01zM5.61 8.66c.238 0 .45-.29.45-.66 0-.37-.212-.66-.45-.66-.264 0-.448.29-.448.66 0 .37.184.66.448.66zm0-1.584c.713 0 1.294.422 1.294.924 0 .528-.58.95-1.294.95-.686 0-1.267-.422-1.267-.95 0-.502.58-.924 1.267-.924zm8.026 1.584c-.264 0-.448-.29-.448-.66 0-.396.184-.686.448-.686.238 0 .45.29.45.686 0 .37-.212.66-.45.66zm0-1.61c-.686 0-1.267.422-1.267.95s.581.95 1.267.95c.713 0 1.294-.422 1.294-.95s-.58-.95-1.294-.95zm-12.593.079v.237h.422l.819 1.532h.977l.818-1.532h.423V7.13H3.26v.237h.343l-.58 1.083-.634-1.083h.45V7.13H1.042z" fill="#FEFEFE"/></g></svg>