<svg width="16" height="16" xmlns="http://www.w3.org/2000/svg" xmlns:xlink="http://www.w3.org/1999/xlink"><defs><path id="a" d="M0 0h15.986v15.987H0z"/></defs><g fill="none" fill-rule="evenodd"><mask id="b" fill="#fff"><use xlink:href="#a"/></mask><path d="M9.448 14.038l.044.034c2.165-.617 3.701-1.951 4.42-4.108.71-2.13.302-4.103-1.07-5.93L9.448 14.039m-2.543.087l-3.47-10.38c-1.464 1.492-2.18 3.998-1.317 6.377.915 2.523 3.158 3.79 4.787 4.003m1.244-1.98l.034-.004c.013-.035.027-.07.038-.105.959-3.095 1.916-6.191 2.878-9.286.038-.123.013-.179-.099-.237-1.836-.957-3.704-1.026-5.603-.202-.207.089-.205.093-.14.304l2.61 8.61c.092.307.188.614.282.92m7.837-4.142a7.997 7.997 0 01-8.01 7.984C3.567 15.977-.007 12.39 0 7.983A7.997 7.997 0 018.011 0a7.998 7.998 0 017.975 8.003" fill="#393939" mask="url(#b)"/></g></svg>