<svg width="48" height="48" xmlns="http://www.w3.org/2000/svg"><g fill-rule="evenodd"><path d="M35.331 38.25l3.99 3.99c-8.855 7.45-21.96 7.45-30.814 0l3.99-3.99c6.638 5.293 16.196 5.293 22.834 0zM42.24 8.507c7.45 8.854 7.45 21.96 0 30.814l-3.989-3.99c5.293-6.638 5.293-16.196 0-22.835l3.99-3.989zm-36.65 0l3.989 3.99c-5.294 6.638-5.294 16.196 0 22.834l-3.99 3.99c-7.45-8.855-7.45-21.96 0-30.814zm33.73-2.919l-3.99 3.99c-6.638-5.294-16.196-5.294-22.835 0l-3.989-3.99c8.854-7.45 21.96-7.45 30.814 0z" fill-rule="nonzero"/><path d="M28.826 16.172l3.191 3.191v7.834c0 1.566-.488 2.413-2.15 2.413h-2.639v1.82H18.9V13.716h8.33v14.359h2.639c.7 0 .613-.102.613-.878v-7.198l-2.74-2.741 1.085-1.086zM17.853 32.14h10.422v1.97H17.853v-1.97zm2.428-16.639h5.566v4.307h-5.566v-4.307z"/></g></svg>