<svg width="49" height="48" xmlns="http://www.w3.org/2000/svg"><path d="M39.82 5.588l-3.989 3.99c-6.638-5.294-16.196-5.294-22.835 0l-3.989-3.99c8.854-7.45 21.96-7.45 30.814 0zm2.92 2.919c7.45 8.854 7.45 21.96 0 30.814l-3.99-3.99c5.293-6.638 5.293-16.196 0-22.835l3.99-3.989zm-2.92 33.732c-8.854 7.45-21.959 7.45-30.813 0l3.99-3.989c6.638 5.293 16.196 5.293 22.834 0l3.99 3.99zM6.089 39.321c-7.45-8.855-7.45-21.96 0-30.814l3.99 3.99c-5.294 6.638-5.294 16.196 0 22.834l-3.99 3.99zm23.563-17.647h-3.516l1.036-8.406c.072-.554-.675-.819-.964-.337l-7.466 12.452c-.217.337.048.77.433.77h3.517l-1.036 8.406c-.072.554.674.82.963.338 2.072-3.445 6.094-10.188 7.467-12.452.217-.338-.048-.771-.434-.771z"/></svg>