<svg width="49" height="48" xmlns="http://www.w3.org/2000/svg"><path d="M39.706 5.588l-3.989 3.99c-6.639-5.294-16.197-5.294-22.835 0l-3.99-3.99c8.855-7.45 21.96-7.45 30.814 0zm2.919 2.919c7.45 8.854 7.45 21.96 0 30.814l-3.99-3.99c5.294-6.638 5.294-16.196 0-22.835l3.99-3.989zm-2.919 33.732c-8.854 7.45-21.959 7.45-30.813 0l3.989-3.989c6.638 5.293 16.196 5.293 22.835 0l3.99 3.99zM5.974 39.321c-7.45-8.855-7.45-21.96 0-30.814l3.99 3.99c-5.294 6.638-5.294 16.196 0 22.834l-3.99 3.99zM14.386 20v-1a2 2 0 012-2h16a2 2 0 012 2v1h-20zm2 9h6v-2h-6v2zm-2-7v7a2 2 0 002 2h16a2 2 0 002-2v-7h-20z"/></svg>