<svg width="49" height="48" xmlns="http://www.w3.org/2000/svg"><path d="M39.763 5.588l-3.989 3.99c-6.638-5.294-16.196-5.294-22.835 0l-3.99-3.99c8.855-7.45 21.96-7.45 30.814 0zm2.919 2.919c7.45 8.854 7.45 21.96 0 30.814l-3.99-3.99c5.294-6.638 5.294-16.196 0-22.835l3.99-3.989zm-2.919 33.732c-8.854 7.45-21.959 7.45-30.813 0l3.989-3.989c6.639 5.293 16.197 5.293 22.835 0l3.99 3.99zM6.031 39.321c-7.45-8.855-7.45-21.96 0-30.814l3.99 3.99c-5.294 6.638-5.294 16.196 0 22.834l-3.99 3.99zm13.985-23.3h11.968v13.963a1.995 1.995 0 001.995-1.995V16.027a2 2 0 00-2-2H22.01a1.995 1.995 0 00-1.995 1.994z"/><path d="M16.027 20.016v11.957a2 2 0 002 2h9.962a2 2 0 002-2V20.016a2 2 0 00-2-2h-9.962a2 2 0 00-2 2zm10.968 7.973h-7.979v-1.994h7.979v1.994zm0-3.989h-7.979v-1.995h7.979V24z"/></svg>