<svg width="48" height="48" xmlns="http://www.w3.org/2000/svg"><path d="M39.32 5.588l-3.989 3.99c-6.638-5.294-16.196-5.294-22.835 0l-3.989-3.99c8.854-7.45 21.96-7.45 30.814 0zm2.92 2.919c7.45 8.854 7.45 21.96 0 30.814l-3.99-3.99c5.293-6.638 5.293-16.196 0-22.835l3.99-3.989zm-2.92 33.732c-8.854 7.45-21.959 7.45-30.813 0l3.99-3.989c6.638 5.293 16.196 5.293 22.834 0l3.99 3.99zM5.589 39.321c-7.45-8.855-7.45-21.96 0-30.814l3.99 3.99c-5.294 6.638-5.294 16.196 0 22.834l-3.99 3.99zm19.123-25.986c.578.398 2.674 1.663 5.24.506.362-.18.796-.18 1.193-.036.362.145.687.434.832.832.506 1.192 1.626 4.445 1.156 8.24-.397 3.361-2.277 8.132-8.71 11.602l-.434.289-.506-.18c-.144-.037-3.253-1.338-5.783-4.41-2.313-2.892-4.554-7.88-1.951-15.397.144-.397.433-.723.83-.903a1.457 1.457 0 011.08-.06l.15.06c.759.325 2.783.975 5.24-.579.506-.325 1.193-.325 1.663.036zm-.362 5.313c-.144-.433-.722-.433-.975 0l-.76 2.386c-.072.18-.252.325-.433.325h-2.494c-.434 0-.614.578-.253.831l2.024 1.482c.18.109.253.325.18.506l-.758 2.386c-.145.433.325.759.687.506l2.024-1.482c.18-.109.397-.109.542 0l2.024 1.482c.325.253.83-.073.686-.506l-.759-2.386a.531.531 0 01.181-.506l2.024-1.482c.361-.253.18-.83-.253-.83h-2.494c-.18 0-.361-.145-.434-.326z"/></svg>