<svg width="49" height="48" xmlns="http://www.w3.org/2000/svg"><path d="M39.82 5.588l-3.989 3.99c-6.638-5.294-16.196-5.294-22.835 0l-3.989-3.99c8.854-7.45 21.96-7.45 30.814 0zm2.92 2.919c7.45 8.854 7.45 21.96 0 30.814l-3.99-3.99c5.293-6.638 5.293-16.196 0-22.835l3.99-3.989zm-2.92 33.732c-8.854 7.45-21.959 7.45-30.813 0l3.99-3.989c6.638 5.293 16.196 5.293 22.834 0l3.99 3.99zM6.089 39.321c-7.45-8.855-7.45-21.96 0-30.814l3.99 3.99c-5.294 6.638-5.294 16.196 0 22.834l-3.99 3.99zm17.738-21.153a4.754 4.754 0 10-9.509 0 4.754 4.754 0 009.509 0zm-6.226 0a1.472 1.472 0 112.944 0 1.472 1.472 0 01-2.944 0zm13.338.579l-1.358-1.358a.777.777 0 00-1.1 0L17.89 27.982a.777.777 0 000 1.099l1.358 1.358a.777.777 0 001.1 0L30.94 19.845a.777.777 0 000-1.098zm-1.184 6.158a4.754 4.754 0 100 9.509 4.754 4.754 0 000-9.509zm0 6.226a1.472 1.472 0 110-2.943 1.472 1.472 0 010 2.943z"/></svg>