<svg xmlns="http://www.w3.org/2000/svg" viewBox="0 0 547.69 122"><defs><style>.cls-2{fill:#fff}</style></defs><g id="Layer_2" data-name="Layer 2"><g id="Layer_1-2" data-name="Layer 1"><circle cx="61" cy="61" r="61" fill="red"/><path class="cls-2" d="M185.63 25.3l25.65 63h-11.34l-6.39-15.93h-25.38l-6.3 15.93H150.8l25.65-63zm-13.95 37.62h18.45l-9.27-23.4zm75.96-18.72h10.44v44.1h-10.44v-5.85a15.52 15.52 0 01-5.45 5 16 16 0 01-8 1.89q-7.92 0-12.38-5t-4.41-13.59V44.2h10.44v24.57q0 5.13 2.47 8.06a8.75 8.75 0 007.07 2.92 9.25 9.25 0 007.47-3.33q2.79-3.33 2.79-9zm35.64-13.05V44.2H295V53h-11.7v19.8c0 2.46.55 4.25 1.66 5.35s2.84 1.67 5.18 1.67a10.86 10.86 0 002.56-.31 6.53 6.53 0 002.3-1v9.27a12.13 12.13 0 01-3.24 1.17 21.34 21.34 0 01-4.68.45q-6.68 0-10.4-3.87t-3.73-10.8V53h-6.57v-8.8h6.57V31.15zm41.04 11.97a24.09 24.09 0 019.36 1.8 23.37 23.37 0 017.47 4.91 22 22 0 014.9 7.33 24.35 24.35 0 010 18.18 21.9 21.9 0 01-4.9 7.33 23.21 23.21 0 01-7.47 4.91 25.24 25.24 0 01-18.72 0 23.1 23.1 0 01-7.47-4.91 21.92 21.92 0 01-4.91-7.33 24.48 24.48 0 010-18.18 22 22 0 014.91-7.33 23.26 23.26 0 017.51-4.91 24.09 24.09 0 019.32-1.8zm0 9.54a12.42 12.42 0 00-5.18 1.08 13.16 13.16 0 00-6.93 7.2 14.33 14.33 0 000 10.67 13.28 13.28 0 006.93 7.15 12.94 12.94 0 0010.35 0 13.28 13.28 0 006.93-7.15 14.2 14.2 0 000-10.67 13.16 13.16 0 00-6.93-7.2 12.37 12.37 0 00-5.17-1.08zM391 80.74a16.76 16.76 0 01-6.07 5.13 18 18 0 01-8.42 2 20.48 20.48 0 01-8.37-1.71 20.75 20.75 0 01-6.7-4.68 21.56 21.56 0 01-4.45-7 23.53 23.53 0 01-1.62-8.82 23.86 23.86 0 011.63-8.9 22.53 22.53 0 014.45-7.16 20.11 20.11 0 016.7-4.77 20.48 20.48 0 018.37-1.71 18.72 18.72 0 018.41 1.88 15.67 15.67 0 016.07 5.14V44.2h10.26v41.4a26.64 26.64 0 01-1.57 9.4 19.79 19.79 0 01-11.79 11.92 28.82 28.82 0 01-22.59-1.39 20.47 20.47 0 01-8.42-8.55l8.28-5.22a14.32 14.32 0 0013.05 7.74q5.94 0 9.36-3.65T391 85.69zm.46-15.12a13.47 13.47 0 00-1-5.13 12.64 12.64 0 00-6.75-7 12.73 12.73 0 00-10.08 0 12.64 12.64 0 00-6.75 7 13.47 13.47 0 00-1 5.13 13.3 13.3 0 001 5.17 13.47 13.47 0 002.7 4.19 12.5 12.5 0 004.05 2.84 12.85 12.85 0 0010.08 0 12.5 12.5 0 004.05-2.82 13.47 13.47 0 002.7-4.19 13.31 13.31 0 001-5.19zm48.14-11.43a6.82 6.82 0 00-2.7-.36 11 11 0 00-9 4.1q-3.28 4.09-3.29 10.93V88.3h-10.39V44.2h10.26v7.56a13.21 13.21 0 015.22-6.16 14.44 14.44 0 017.92-2.3 3.87 3.87 0 012 .27zm51.12-9.99v44.1h-10.26v-6.39a17.4 17.4 0 01-6.39 5.44 18.39 18.39 0 01-8.55 2 20.09 20.09 0 01-8.5-1.8 21.2 21.2 0 01-6.8-4.91 23 23 0 01-4.54-7.33 25.57 25.57 0 010-18.18 23.07 23.07 0 014.54-7.33 21.35 21.35 0 016.8-4.91 20.82 20.82 0 0117.05 0 15.92 15.92 0 016.39 5.26v-6zm-36.27 22a13.77 13.77 0 001 5.36 13.92 13.92 0 002.79 4.31 13 13 0 0018.81 0 13.92 13.92 0 002.79-4.31 14.44 14.44 0 000-10.71 14.08 14.08 0 00-2.79-4.32 13 13 0 00-4.19-2.93 13.15 13.15 0 00-10.44 0 13 13 0 00-4.18 2.93 14.08 14.08 0 00-2.79 4.32 13.72 13.72 0 00-1 5.4zm82.89 22.1V82a17 17 0 01-6.34 5.4 18.85 18.85 0 01-8.55 2 20.61 20.61 0 01-15.3-6.62 23 23 0 01-4.54-7.33 24.84 24.84 0 01-1.67-9.18 24.6 24.6 0 011.67-9.09 23.07 23.07 0 014.54-7.33 21.35 21.35 0 016.8-4.91A20.82 20.82 0 01531 45a15.92 15.92 0 016.39 5.26V25.3h10.35v63zm-26-22a13.77 13.77 0 001 5.36 13.92 13.92 0 002.79 4.31 13 13 0 0018.81 0 13.92 13.92 0 002.79-4.31 14.44 14.44 0 000-10.71 14.08 14.08 0 00-2.73-4.37 13 13 0 00-4.19-2.93 13.16 13.16 0 00-10.44 0 13 13 0 00-4.18 2.93 14.08 14.08 0 00-2.79 4.32 13.72 13.72 0 00-1.07 5.35zM83.93 42.49a18.42 18.42 0 0114.39 6.92h4.62a22.23 22.23 0 00-39.23 2.28l2.36 4.58a18.48 18.48 0 0117.86-13.78z"/><path class="cls-2" d="M102.33 62.35H84.65v3.78h17a18.45 18.45 0 01-34.34 2.81l-5.48-10.55-3.77-7.32-.16-.31a22.26 22.26 0 10-3.33 25.15v7.28h3.79v-13L56 65.62a18.46 18.46 0 11-1.29-12.81l5.53 10.7 3.7 7.17.3.59a22.23 22.23 0 0041.89-8.91z"/></g></g></svg>