<svg width="122" height="122" xmlns="http://www.w3.org/2000/svg"><g fill="none"><circle fill="red" cx="61" cy="61" r="61"/><path d="M83.93 42.49a18.42 18.42 0 0114.39 6.92h4.62a22.23 22.23 0 00-39.23 2.28l2.36 4.58a18.48 18.48 0 0117.86-13.78z" fill="#FFF"/><path d="M102.33 62.35H84.65v3.78h17a18.45 18.45 0 01-34.34 2.81l-5.48-10.55-3.77-7.32-.16-.31a22.26 22.26 0 10-3.33 25.15v7.28h3.79v-13L56 65.62a18.46 18.46 0 11-1.29-12.81l5.53 10.7 3.7 7.17.3.59a22.23 22.23 0 0041.89-8.91l-3.8-.01z" fill="#FFF"/></g></svg>