<svg width="100" height="100" xmlns="http://www.w3.org/2000/svg"><path d="M100 50c0-27.614-22.386-50-50-50S0 22.386 0 50s22.386 50 50 50a50 50 0 0050-50zM42.69 38.88a13.6 13.6 0 00-.32 1.9.45.45 0 01-.56.49h-7.4c-.23 0-.4 0-.39-.32a19.08 19.08 0 011.56-7.39 13.72 13.72 0 016.62-6.62 19.34 19.34 0 0115.1-.74 12.4 12.4 0 017.7 7.2 14.39 14.39 0 01.86 6.8 11.39 11.39 0 01-3.66 7.38c-1.6 1.55-3.32 3-5 4.45a9.38 9.38 0 00-3 3.8 12.55 12.55 0 00-.66 3.67c0 .44-.07.89-.09 1.33a.29.29 0 01-.33.33h-6.59a.25.25 0 01-.31-.29 27.64 27.64 0 01.66-6.44 12.09 12.09 0 013.64-5.67c1.48-1.37 3-2.75 4.36-4.2a8.55 8.55 0 002.33-4.38c.54-2.81-.51-4.89-3.2-5.87a10.2 10.2 0 00-8 .29 6.05 6.05 0 00-3.32 4.28zm2.82 31.48a4.4 4.4 0 118.8.14 4.4 4.4 0 01-8.8-.14z"/></svg>