<svg xmlns="http://www.w3.org/2000/svg"><symbol id="icon-cards"><g fill-rule="evenodd"><rect width="18" height="18" rx="2"/><rect y="30" width="18" height="18" rx="2"/><rect x="30" width="18" height="18" rx="2"/><rect x="30" y="30" width="18" height="18" rx="2"/></g></symbol><symbol id="icon-compare"><path d="M13.714 9.143H11.43v2.286H9.143v2.285h2.286V16h2.285v-2.286H16V11.43h-2.286V9.143zm-6.36 4.571H0V16h7.354v-2.286zm0-4.571H0v2.286h7.354V9.143zM16 4.57H0v2.286h16V4.571zM16 0H0v2.286h16V0z"/></symbol><symbol id="icon-credit"><path d="M39.706 5.588l-3.989 3.99c-6.639-5.294-16.197-5.294-22.835 0l-3.99-3.99c8.855-7.45 21.96-7.45 30.814 0zm2.919 2.919c7.45 8.854 7.45 21.96 0 30.814l-3.99-3.99c5.294-6.638 5.294-16.196 0-22.835l3.99-3.989zm-2.919 33.732c-8.854 7.45-21.959 7.45-30.813 0l3.989-3.989c6.638 5.293 16.196 5.293 22.835 0l3.99 3.99zM5.974 39.321c-7.45-8.855-7.45-21.96 0-30.814l3.99 3.99c-5.294 6.638-5.294 16.196 0 22.834l-3.99 3.99zM14.386 20v-1a2 2 0 012-2h16a2 2 0 012 2v1h-20zm2 9h6v-2h-6v2zm-2-7v7a2 2 0 002 2h16a2 2 0 002-2v-7h-20z"/></symbol><symbol id="icon-docs"><path d="M39.763 5.588l-3.989 3.99c-6.638-5.294-16.196-5.294-22.835 0l-3.99-3.99c8.855-7.45 21.96-7.45 30.814 0zm2.919 2.919c7.45 8.854 7.45 21.96 0 30.814l-3.99-3.99c5.294-6.638 5.294-16.196 0-22.835l3.99-3.989zm-2.919 33.732c-8.854 7.45-21.959 7.45-30.813 0l3.989-3.989c6.639 5.293 16.197 5.293 22.835 0l3.99 3.99zM6.031 39.321c-7.45-8.855-7.45-21.96 0-30.814l3.99 3.99c-5.294 6.638-5.294 16.196 0 22.834l-3.99 3.99zm13.985-23.3h11.968v13.963a1.995 1.995 0 001.995-1.995V16.027a2 2 0 00-2-2H22.01a1.995 1.995 0 00-1.995 1.994z"/><path d="M16.027 20.016v11.957a2 2 0 002 2h9.962a2 2 0 002-2V20.016a2 2 0 00-2-2h-9.962a2 2 0 00-2 2zm10.968 7.973h-7.979v-1.994h7.979v1.994zm0-3.989h-7.979v-1.995h7.979V24z"/></symbol><symbol id="icon-exchange" viewBox="0 0 423.755 423.755"><path d="M43.841 281.457c-18.585-44.869-18.586-94.29 0-139.159 15.615-37.697 42.78-68.384 77.674-88.255v75.005h30V15.053H37.519v30h43.755c-73 57.164-102.324 158.139-65.15 247.885 14.167 34.202 37.07 64.159 66.234 86.634 28.274 21.789 61.873 36.201 97.162 41.677l4.601-29.646c-63.343-9.829-115.783-51.005-140.28-110.146zm363.676 11.481c21.651-52.272 21.651-109.848 0-162.12-14.167-34.202-37.07-64.159-66.234-86.633-28.275-21.79-61.874-36.202-97.163-41.678l-4.6 29.646c63.342 9.829 115.782 51.005 140.279 110.146 18.585 44.869 18.585 94.29 0 139.159-15.614 37.697-42.78 68.384-77.673 88.255v-75.005h-30v113.995h113.995v-30h-43.625c28.453-22.217 50.831-51.508 65.021-85.765z"/></symbol><symbol id="icon-filter" viewBox="0 0 56 56"><path d="M41.08 48H2a1 1 0 100 2h39.08c.488 3.387 3.401 6 6.92 6 3.859 0 7-3.14 7-7s-3.141-7-7-7c-3.519 0-6.432 2.613-6.92 6zM20.695 27H2a1 1 0 100 2h18.632c.396 3.602 3.456 6.414 7.161 6.414s6.765-2.812 7.161-6.414H54a1 1 0 100-2H34.891c-.577-3.4-3.536-6-7.098-6s-6.521 2.6-7.098 6zM8 0C4.141 0 1 3.14 1 7s3.141 7 7 7c3.519 0 6.432-2.613 6.92-6H54a1 1 0 100-2H14.92C14.432 2.613 11.519 0 8 0z"/></symbol><symbol id="icon-fuel"><g fill-rule="evenodd"><path d="M35.331 38.25l3.99 3.99c-8.855 7.45-21.96 7.45-30.814 0l3.99-3.99c6.638 5.293 16.196 5.293 22.834 0zM42.24 8.507c7.45 8.854 7.45 21.96 0 30.814l-3.989-3.99c5.293-6.638 5.293-16.196 0-22.835l3.99-3.989zm-36.65 0l3.989 3.99c-5.294 6.638-5.294 16.196 0 22.834l-3.99 3.99c-7.45-8.855-7.45-21.96 0-30.814zm33.73-2.919l-3.99 3.99c-6.638-5.294-16.196-5.294-22.835 0l-3.989-3.99c8.854-7.45 21.96-7.45 30.814 0z" fill-rule="nonzero"/><path d="M28.826 16.172l3.191 3.191v7.834c0 1.566-.488 2.413-2.15 2.413h-2.639v1.82H18.9V13.716h8.33v14.359h2.639c.7 0 .613-.102.613-.878v-7.198l-2.74-2.741 1.085-1.086zM17.853 32.14h10.422v1.97H17.853v-1.97zm2.428-16.639h5.566v4.307h-5.566v-4.307z"/></g></symbol><symbol id="icon-guarantee"><path d="M39.32 5.588l-3.989 3.99c-6.638-5.294-16.196-5.294-22.835 0l-3.989-3.99c8.854-7.45 21.96-7.45 30.814 0zm2.92 2.919c7.45 8.854 7.45 21.96 0 30.814l-3.99-3.99c5.293-6.638 5.293-16.196 0-22.835l3.99-3.989zm-2.92 33.732c-8.854 7.45-21.959 7.45-30.813 0l3.99-3.989c6.638 5.293 16.196 5.293 22.834 0l3.99 3.99zM5.589 39.321c-7.45-8.855-7.45-21.96 0-30.814l3.99 3.99c-5.294 6.638-5.294 16.196 0 22.834l-3.99 3.99zm19.123-25.986c.578.398 2.674 1.663 5.24.506.362-.18.796-.18 1.193-.036.362.145.687.434.832.832.506 1.192 1.626 4.445 1.156 8.24-.397 3.361-2.277 8.132-8.71 11.602l-.434.289-.506-.18c-.144-.037-3.253-1.338-5.783-4.41-2.313-2.892-4.554-7.88-1.951-15.397.144-.397.433-.723.83-.903a1.457 1.457 0 011.08-.06l.15.06c.759.325 2.783.975 5.24-.579.506-.325 1.193-.325 1.663.036zm-.362 5.313c-.144-.433-.722-.433-.975 0l-.76 2.386c-.072.18-.252.325-.433.325h-2.494c-.434 0-.614.578-.253.831l2.024 1.482c.18.109.253.325.18.506l-.758 2.386c-.145.433.325.759.687.506l2.024-1.482c.18-.109.397-.109.542 0l2.024 1.482c.325.253.83-.073.686-.506l-.759-2.386a.531.531 0 01.181-.506l2.024-1.482c.361-.253.18-.83-.253-.83h-2.494c-.18 0-.361-.145-.434-.326z"/></symbol><symbol id="icon-like--active"><path d="M8 14.786L6.88 13.66C2.72 9.964 0 7.473 0 4.42 0 1.929 1.92 0 4.4 0 5.76 0 7.12.643 8 1.688 8.88.643 10.24 0 11.6 0 14.08 0 16 1.929 16 4.42c0 3.053-2.72 5.544-6.88 9.24L8 14.787z" fill="#FF3D3D"/></symbol><symbol id="icon-like"><path d="M8 14.786L6.88 13.66C2.72 9.964 0 7.473 0 4.42 0 1.929 1.92 0 4.4 0 5.76 0 7.12.643 8 1.688 8.88.643 10.24 0 11.6 0 14.08 0 16 1.929 16 4.42c0 3.053-2.72 5.544-6.88 9.24L8 14.787v-.001z"/></symbol><symbol id="icon-mileage"><path d="M39.706 5.588l-3.989 3.99c-6.639-5.294-16.197-5.294-22.835 0l-3.99-3.99c8.855-7.45 21.96-7.45 30.814 0zm2.919 2.919c7.45 8.854 7.45 21.96 0 30.814l-3.99-3.99c5.294-6.638 5.294-16.196 0-22.835l3.99-3.989zm-2.919 33.732c-8.854 7.45-21.959 7.45-30.813 0l3.989-3.989c6.638 5.293 16.196 5.293 22.835 0l3.99 3.99zM5.974 39.321c-7.45-8.855-7.45-21.96 0-30.814l3.99 3.99c-5.294 6.638-5.294 16.196 0 22.834l-3.99 3.99zm19.468-15.946c-.355-.669-4.014-4.943-4.137-4.878-.124.066 1.359 5.494 1.714 6.163a1.371 1.371 0 002.423-1.285z"/><path d="M24.386 13.787c-5.64 0-10.213 4.572-10.213 10.213 0 5.64 4.572 10.213 10.213 10.213 5.64 0 10.212-4.573 10.212-10.213 0-5.64-4.572-10.213-10.212-10.213zm0 2.594a7.619 7.619 0 017.47 9.12h-4.314c-.359 1.035-1.634 1.802-3.156 1.802-1.523 0-2.798-.767-3.157-1.802h-4.314a7.619 7.619 0 017.47-9.12z"/></symbol><symbol id="icon-owners"><g transform="translate(.886)"><path d="M39.32 5.588l-3.989 3.99c-6.638-5.294-16.196-5.294-22.835 0l-3.989-3.99c8.854-7.45 21.96-7.45 30.814 0zm2.92 2.919c7.45 8.854 7.45 21.96 0 30.814l-3.99-3.99c5.293-6.638 5.293-16.196 0-22.835l3.99-3.989zm-2.92 33.732c-8.854 7.45-21.959 7.45-30.813 0l3.99-3.989c6.638 5.293 16.196 5.293 22.834 0l3.99 3.99zM5.589 39.321c-7.45-8.855-7.45-21.96 0-30.814l3.99 3.99c-5.294 6.638-5.294 16.196 0 22.834l-3.99 3.99z"/><circle cx="23.894" cy="17.426" r="3.532"/><path d="M32.191 31.894a1.365 1.365 0 01-1.85-.447l-2.554-4.234v5.617a1.28 1.28 0 01-1.276 1.276h-5.234A1.28 1.28 0 0120 32.83v-5.617l-2.532 4.213a1.346 1.346 0 01-1.851.468 1.352 1.352 0 01-.468-1.851l4.383-7.256a1.34 1.34 0 011.149-.66h6.425c.468 0 .915.256 1.15.66l4.382 7.256a1.35 1.35 0 01-.447 1.85z"/></g></symbol><symbol id="icon-percent"><path d="M39.82 5.588l-3.989 3.99c-6.638-5.294-16.196-5.294-22.835 0l-3.989-3.99c8.854-7.45 21.96-7.45 30.814 0zm2.92 2.919c7.45 8.854 7.45 21.96 0 30.814l-3.99-3.99c5.293-6.638 5.293-16.196 0-22.835l3.99-3.989zm-2.92 33.732c-8.854 7.45-21.959 7.45-30.813 0l3.99-3.989c6.638 5.293 16.196 5.293 22.834 0l3.99 3.99zM6.089 39.321c-7.45-8.855-7.45-21.96 0-30.814l3.99 3.99c-5.294 6.638-5.294 16.196 0 22.834l-3.99 3.99zm17.738-21.153a4.754 4.754 0 10-9.509 0 4.754 4.754 0 009.509 0zm-6.226 0a1.472 1.472 0 112.944 0 1.472 1.472 0 01-2.944 0zm13.338.579l-1.358-1.358a.777.777 0 00-1.1 0L17.89 27.982a.777.777 0 000 1.099l1.358 1.358a.777.777 0 001.1 0L30.94 19.845a.777.777 0 000-1.098zm-1.184 6.158a4.754 4.754 0 100 9.509 4.754 4.754 0 000-9.509zm0 6.226a1.472 1.472 0 110-2.943 1.472 1.472 0 010 2.943z"/></symbol><symbol id="icon-phone"><path d="M37.62 30.668l8.817 4.899a2.897 2.897 0 011.321 3.551c-2.528 6.907-9.932 10.552-16.899 8.01C16.594 41.92 6.02 31.346.812 17.08-1.73 10.114 1.915 2.71 8.822.18a2.9 2.9 0 013.553 1.322c1.63 2.939 3.264 5.879 4.897 8.817a3.592 3.592 0 01-.462 4.192l-4.116 4.63c2.929 7.132 8.972 13.175 16.104 16.104l4.63-4.116a3.592 3.592 0 014.192-.462z" fill-rule="evenodd"/></symbol><symbol id="icon-power"><path d="M39.82 5.588l-3.989 3.99c-6.638-5.294-16.196-5.294-22.835 0l-3.989-3.99c8.854-7.45 21.96-7.45 30.814 0zm2.92 2.919c7.45 8.854 7.45 21.96 0 30.814l-3.99-3.99c5.293-6.638 5.293-16.196 0-22.835l3.99-3.989zm-2.92 33.732c-8.854 7.45-21.959 7.45-30.813 0l3.99-3.989c6.638 5.293 16.196 5.293 22.834 0l3.99 3.99zM6.089 39.321c-7.45-8.855-7.45-21.96 0-30.814l3.99 3.99c-5.294 6.638-5.294 16.196 0 22.834l-3.99 3.99zm23.563-17.647h-3.516l1.036-8.406c.072-.554-.675-.819-.964-.337l-7.466 12.452c-.217.337.048.77.433.77h3.517l-1.036 8.406c-.072.554.674.82.963.338 2.072-3.445 6.094-10.188 7.467-12.452.217-.338-.048-.771-.434-.771z"/></symbol><symbol id="icon-print"><path d="M12.8 2.489H3.2V.477C3.2.213 3.413 0 3.677 0h8.646a.477.477 0 01.477.477v2.012zM16 5.135v5.73a1.935 1.935 0 01-1.935 1.935h-.554V8.711H2.49V12.8h-.554A1.935 1.935 0 010 10.865v-5.73C0 4.066.866 3.2 1.935 3.2h12.13C15.134 3.2 16 4.066 16 5.135zm-1.778.732a.889.889 0 10-1.778 0 .889.889 0 001.778 0zM3.677 16a.477.477 0 01-.477-.477v-6.1h9.6v6.1a.477.477 0 01-.477.477H3.677zm.59-5.067c0 .246.199.445.444.445h6.578a.444.444 0 000-.89H4.71a.444.444 0 00-.444.445zm0 1.778c0 .246.199.445.444.445h6.578a.444.444 0 000-.89H4.71a.444.444 0 00-.444.445zm0 1.778c0 .245.199.444.444.444h6.578a.444.444 0 000-.889H4.71a.444.444 0 00-.444.445z"/></symbol><symbol id="icon-remove" viewBox="0 0 512 512"><path d="M256 512C114.836 512 0 397.164 0 256S114.836 0 256 0s256 114.836 256 256-114.836 256-256 256zm0-480C132.48 32 32 132.48 32 256s100.48 224 224 224 224-100.48 224-224S379.52 32 256 32zm0 0"/><path d="M176.813 351.188c-4.098 0-8.196-1.555-11.31-4.692-6.25-6.25-6.25-16.383 0-22.633l158.4-158.402c6.253-6.25 16.386-6.25 22.636 0s6.25 16.383 0 22.637L188.137 346.496a16.016 16.016 0 01-11.325 4.692zm0 0"/><path d="M335.188 351.188c-4.094 0-8.192-1.555-11.305-4.692L165.484 188.117c-6.254-6.25-6.254-16.383 0-22.633 6.25-6.254 16.383-6.254 22.633 0l158.399 158.399c6.254 6.25 6.254 16.383 0 22.633a16.007 16.007 0 01-11.329 4.672zm0 0"/></symbol><symbol id="icon-rows"><g fill-rule="evenodd"><rect width="48" height="18" rx="2"/><rect y="30" width="48" height="18" rx="2"/></g></symbol><symbol id="icon-star"><path d="M24 0C10.766 0 0 10.766 0 24s10.766 24 24 24 24-10.766 24-24S37.234 0 24 0zm15.614 19.79l-8.474 6.59 2.824 10.358a1 1 0 01-1.518 1.094L24 32.202l-8.446 5.63a1 1 0 11-1.52-1.094L16.86 26.38l-8.474-6.59A1 1 0 019 18h10.324l3.748-9.372c.304-.76 1.552-.76 1.858 0L28.676 18H39a1.001 1.001 0 01.614 1.79z"/></symbol><symbol id="icon-tradein"><path d="M15.17 8.75h-4.108V6.653c0-.624-.264-.792-.63-.373L7.05 10.174c-.366.42-.356 1.105.01 1.524l3.368 3.895c.366.42.634.251.634-.373V13h4.108c.493 0 .83-.446.83-1.07V9.943c0-.624-.337-1.193-.83-1.193zM8.952 4.214L5.577.32c-.366-.42-.639-.25-.639.373V3h-4.1C.344 3 0 3.358 0 3.983V5.97c0 .624.344 1.28.838 1.28h4.1v2.01c0 .624.268.792.633.373l3.384-3.895c.366-.419.362-1.105-.003-1.524z"/></symbol><symbol id="icon-transmission"><path d="M39.763 5.588l-3.989 3.99c-6.638-5.294-16.196-5.294-22.835 0l-3.99-3.99c8.855-7.45 21.96-7.45 30.814 0zm2.919 2.919c7.45 8.854 7.45 21.96 0 30.814l-3.99-3.99c5.294-6.638 5.294-16.196 0-22.835l3.99-3.989zm-2.919 33.732c-8.854 7.45-21.959 7.45-30.813 0l3.989-3.989c6.639 5.293 16.197 5.293 22.835 0l3.99 3.99zM6.031 39.321c-7.45-8.855-7.45-21.96 0-30.814l3.99 3.99c-5.294 6.638-5.294 16.196 0 22.834l-3.99 3.99zm15.823-15.815a3.008 3.008 0 00-1.113.202l-5.488 2.25c-.96.393-1.073 1.222-.255 1.86l7.098 5.53c.818.637 2.249.833 3.208.44l5.488-2.248c.96-.394 1.073-1.223.255-1.86l-4.163-3.245-.99 2.239 3.575 2.783-3.156 1.295-9.001-7.013 3.154-1.293 1.94 1.51.95-2.152a3.83 3.83 0 00-1.502-.298z"/><path d="M24.772 21.85l-2.43 5.602c-.19.44.311 1.036 1.126 1.335.814.298 1.624.182 1.815-.258l2.75-6.34a9.45 9.45 0 01-.28.024c-1.138.078-2.157-.061-2.98-.364zm5.13-7.84c-.194 0-.393.007-.594.02-2.832.193-5.462 1.653-6.358 3.417-.237.063-.419.12-.419.12a1.2 1.2 0 00-.679.21 1.409 1.409 0 00-.146.112c-.236.203-.424.49-.536.828v.002a2.245 2.245 0 00-.07.261v.002c-.023.12-.04.244-.044.372v.002a2.496 2.496 0 00.006.288v.005c.053.641.356 1.187.784 1.473.232.174.496.274.769.274.58-.1 1.072-.192 1.55-.437.904.487 2.151.733 3.588.635 3.232-.219 6.199-2.09 6.628-4.18.403-1.957-1.568-3.412-4.479-3.405z"/></symbol><symbol id="icon-wheels"><g fill-rule="evenodd"><path d="M40.206 5.588l-3.989 3.99c-6.639-5.294-16.197-5.294-22.835 0l-3.99-3.99c8.855-7.45 21.96-7.45 30.814 0zm2.919 2.919c7.45 8.854 7.45 21.96 0 30.814l-3.99-3.99c5.294-6.638 5.294-16.196 0-22.835l3.99-3.989zm-2.919 33.732c-8.854 7.45-21.959 7.45-30.813 0l3.989-3.989c6.638 5.293 16.196 5.293 22.835 0l3.99 3.99zM6.474 39.321c-7.45-8.855-7.45-21.96 0-30.814l3.99 3.99c-5.294 6.638-5.294 16.196 0 22.834l-3.99 3.99z" fill-rule="nonzero"/><path d="M17.677 13.752h2.403c.331 0 .6.345.6.77v5.392c0 .426-.269.77-.6.77h-2.403c-.332 0-.601-.344-.601-.77v-5.392c0-.425.269-.77.6-.77zm12.015 0h2.403c.331 0 .6.345.6.77v5.392c0 .426-.269.77-.6.77h-2.403c-.332 0-.601-.344-.601-.77v-5.392c0-.425.269-.77.6-.77zM17.677 27.316h2.403c.331 0 .6.344.6.77v5.392c0 .425-.269.77-.6.77h-2.403c-.332 0-.601-.345-.601-.77v-5.392c0-.426.269-.77.6-.77zm12.015 0h2.403c.331 0 .6.344.6.77v5.392c0 .425-.269.77-.6.77h-2.403c-.332 0-.601-.345-.601-.77v-5.392c0-.426.269-.77.6-.77zm-4.206-8.829v11.026a2.11 2.11 0 011.415 1.42h.99a.3.3 0 01.299.304v.597a.3.3 0 01-.3.304h-.989a2.105 2.105 0 01-2.015 1.507 2.105 2.105 0 01-2.016-1.507h-.99a.301.301 0 01-.299-.304v-.597a.3.3 0 01.3-.305h.989a2.11 2.11 0 011.415-1.42V18.488a2.11 2.11 0 01-1.415-1.42h-.99a.301.301 0 01-.299-.304v-.597a.3.3 0 01.3-.304h.989a2.105 2.105 0 012.016-1.507c.952 0 1.757.635 2.015 1.507h.99a.3.3 0 01.299.304v.597a.3.3 0 01-.3.305h-.989a2.11 2.11 0 01-1.415 1.42z"/></g></symbol></svg>