<svg width="49" height="48" xmlns="http://www.w3.org/2000/svg"><g transform="translate(.886)"><path d="M39.32 5.588l-3.989 3.99c-6.638-5.294-16.196-5.294-22.835 0l-3.989-3.99c8.854-7.45 21.96-7.45 30.814 0zm2.92 2.919c7.45 8.854 7.45 21.96 0 30.814l-3.99-3.99c5.293-6.638 5.293-16.196 0-22.835l3.99-3.989zm-2.92 33.732c-8.854 7.45-21.959 7.45-30.813 0l3.99-3.989c6.638 5.293 16.196 5.293 22.834 0l3.99 3.99zM5.589 39.321c-7.45-8.855-7.45-21.96 0-30.814l3.99 3.99c-5.294 6.638-5.294 16.196 0 22.834l-3.99 3.99z"/><circle cx="23.894" cy="17.426" r="3.532"/><path d="M32.191 31.894a1.365 1.365 0 01-1.85-.447l-2.554-4.234v5.617a1.28 1.28 0 01-1.276 1.276h-5.234A1.28 1.28 0 0120 32.83v-5.617l-2.532 4.213a1.346 1.346 0 01-1.851.468 1.352 1.352 0 01-.468-1.851l4.383-7.256a1.34 1.34 0 011.149-.66h6.425c.468 0 .915.256 1.15.66l4.382 7.256a1.35 1.35 0 01-.447 1.85z"/></g></svg>