<svg width="49" height="48" xmlns="http://www.w3.org/2000/svg"><g fill-rule="evenodd"><path d="M40.206 5.588l-3.989 3.99c-6.639-5.294-16.197-5.294-22.835 0l-3.99-3.99c8.855-7.45 21.96-7.45 30.814 0zm2.919 2.919c7.45 8.854 7.45 21.96 0 30.814l-3.99-3.99c5.294-6.638 5.294-16.196 0-22.835l3.99-3.989zm-2.919 33.732c-8.854 7.45-21.959 7.45-30.813 0l3.989-3.989c6.638 5.293 16.196 5.293 22.835 0l3.99 3.99zM6.474 39.321c-7.45-8.855-7.45-21.96 0-30.814l3.99 3.99c-5.294 6.638-5.294 16.196 0 22.834l-3.99 3.99z" fill-rule="nonzero"/><path d="M17.677 13.752h2.403c.331 0 .6.345.6.77v5.392c0 .426-.269.77-.6.77h-2.403c-.332 0-.601-.344-.601-.77v-5.392c0-.425.269-.77.6-.77zm12.015 0h2.403c.331 0 .6.345.6.77v5.392c0 .426-.269.77-.6.77h-2.403c-.332 0-.601-.344-.601-.77v-5.392c0-.425.269-.77.6-.77zM17.677 27.316h2.403c.331 0 .6.344.6.77v5.392c0 .425-.269.77-.6.77h-2.403c-.332 0-.601-.345-.601-.77v-5.392c0-.426.269-.77.6-.77zm12.015 0h2.403c.331 0 .6.344.6.77v5.392c0 .425-.269.77-.6.77h-2.403c-.332 0-.601-.345-.601-.77v-5.392c0-.426.269-.77.6-.77zm-4.206-8.829v11.026a2.11 2.11 0 011.415 1.42h.99a.3.3 0 01.299.304v.597a.3.3 0 01-.3.304h-.989a2.105 2.105 0 01-2.015 1.507 2.105 2.105 0 01-2.016-1.507h-.99a.301.301 0 01-.299-.304v-.597a.3.3 0 01.3-.305h.989a2.11 2.11 0 011.415-1.42V18.488a2.11 2.11 0 01-1.415-1.42h-.99a.301.301 0 01-.299-.304v-.597a.3.3 0 01.3-.304h.989a2.105 2.105 0 012.016-1.507c.952 0 1.757.635 2.015 1.507h.99a.3.3 0 01.299.304v.597a.3.3 0 01-.3.305h-.989a2.11 2.11 0 01-1.415 1.42z"/></g></svg>