<svg width="49" height="48" xmlns="http://www.w3.org/2000/svg"><path d="M39.706 5.588l-3.989 3.99c-6.639-5.294-16.197-5.294-22.835 0l-3.99-3.99c8.855-7.45 21.96-7.45 30.814 0zm2.919 2.919c7.45 8.854 7.45 21.96 0 30.814l-3.99-3.99c5.294-6.638 5.294-16.196 0-22.835l3.99-3.989zm-2.919 33.732c-8.854 7.45-21.959 7.45-30.813 0l3.989-3.989c6.638 5.293 16.196 5.293 22.835 0l3.99 3.99zM5.974 39.321c-7.45-8.855-7.45-21.96 0-30.814l3.99 3.99c-5.294 6.638-5.294 16.196 0 22.834l-3.99 3.99zm19.468-15.946c-.355-.669-4.014-4.943-4.137-4.878-.124.066 1.359 5.494 1.714 6.163a1.371 1.371 0 002.423-1.285z"/><path d="M24.386 13.787c-5.64 0-10.213 4.572-10.213 10.213 0 5.64 4.572 10.213 10.213 10.213 5.64 0 10.212-4.573 10.212-10.213 0-5.64-4.572-10.213-10.212-10.213zm0 2.594a7.619 7.619 0 017.47 9.12h-4.314c-.359 1.035-1.634 1.802-3.156 1.802-1.523 0-2.798-.767-3.157-1.802h-4.314a7.619 7.619 0 017.47-9.12z"/></svg>