<svg width="46" height="16" xmlns="http://www.w3.org/2000/svg"><g fill="none" fill-rule="evenodd"><path d="M8.086 15.83C3.94 15.83.197 12.405.197 8.193c0-2.16.812-4.28 2.352-5.803C3.935 1.028 5.873.166 7.82.166c1.9 0 3.705.53 5.157 1.767C14.342.8 16.114.177 17.892.177c1.827 0 3.583.613 4.985 1.784C24.274.746 26.052.194 27.884.194c1.795 0 3.512.64 4.903 1.761C34.277.79 36.067.2 37.966.2c1.695 0 3.417.702 4.72 1.773a7.865 7.865 0 012.865 6.034c0 4.306-3.461 7.856-7.784 7.856-1.833 0-3.594-.574-4.985-1.778-1.38 1.088-3.114 1.773-4.887 1.773-1.85 0-3.621-.564-5.034-1.778-1.42 1.115-3.159 1.761-4.97 1.761-1.805 0-3.566-.569-4.93-1.766-1.407 1.11-3.07 1.755-4.875 1.755z" fill="#393939"/><path d="M11.239 12.102c-.696-1.159-1.137-2.506-1.137-3.864 0-1.563.358-3.004 1.153-4.35-1.015-.702-2.186-1.121-3.434-1.121-2.87 0-5.018 2.66-5.018 5.41 0 2.805 2.562 5.035 5.283 5.035 1.155 0 2.242-.42 3.153-1.11m1.717-2.451c.21-.546.281-1.12.281-1.706 0-.552-.104-1.093-.27-1.618a5.155 5.155 0 00-.265 1.585c0 .596.072 1.176.254 1.74m1.722 2.45c1.016.801 2.203 1.116 3.49 1.116 1.104 0 2.12-.459 2.987-1.11-.8-1.314-1.149-2.75-1.149-4.29 0-1.374.475-2.733 1.165-3.909-.955-.69-2.081-1.131-3.274-1.131-1.192 0-2.28.403-3.207 1.126.833 1.353 1.142 2.849 1.142 4.428 0 1.314-.469 2.666-1.154 3.77m8.177-2.44c.177-.535.293-1.12.293-1.684a4.52 4.52 0 00-.287-1.623 5.257 5.257 0 00-.26 1.629c0 .58.033 1.137.254 1.678m1.705 2.457c1.028.767 2.193 1.12 3.468 1.12 1.093 0 2.18-.457 3.031-1.131-.712-1.193-1.148-2.556-1.148-3.953a8.11 8.11 0 011.165-4.223 5.348 5.348 0 00-3.263-1.138c-1.182 0-2.297.42-3.23 1.132.817 1.342 1.148 2.694 1.148 4.279 0 1.38-.452 2.744-1.17 3.914m8.209-2.453a5.555 5.555 0 00.266-1.7 5.24 5.24 0 00-.26-1.6c-.16.519-.27 1.032-.27 1.578 0 .59.082 1.16.265 1.722m1.733 2.464c.933.712 2.07 1.132 3.246 1.132 2.904 0 5.212-2.374 5.212-5.261 0-2.833-2.446-5.207-5.261-5.207-1.165 0-2.275.43-3.197 1.127.723 1.23 1.154 2.633 1.154 4.068 0 1.47-.486 2.85-1.154 4.141" fill="#FFFFFE"/></g></svg>