<svg width="58" height="16" xmlns="http://www.w3.org/2000/svg"><path d="M11.052 1.115C2.77.645-2.604 7.623 5.57 7.75 12.243 2.566 20.627-1.53 23.6.62c2.76 3.39-11.583 8.637-17.07 7.889-6.51 7.463-.975 8.856 7.94 3.018 2.925-2.746 5.744-3.82 8.054-3.099L18.7 12.616c-.865 1.809.807.983 2.706-.646 2.391-3.153 5.025-3.924 7.092-3.636 1.014-1.1 2.17-2.06 3.185-3.16h1.462c-2.417 2.321-4.916 4.544-7.137 7.103-.423 1.25.588 1.435 2.719-.66l3.446-3.13 1.296-.015-3.691 3.68c-.826 1.484.602 1.576 3.174.215.685-2.87 5.556-7.554 7.472-7.616 1.505.967-2.144 5.015-6.464 7.546-.602 1.624 1.174 1.326 3.943.234.494-2.694 5.611-7.505 7.128-7.357 1.865.372-.942 4.187-5.998 7.188-.506 1.932 1.508 1.027 3.564-.592 2.448-2.827 5.336-4.198 8.237-3.286l-3.617 4.063c-.52.624.122 1.477 1.198.523 1.85-1.809 5.37-6.36 8.506-4.959.84.716.04 1.876-1.306 2.569-.322.078-.417-.005-.284-.25.94-.756 1.372-1.41.902-1.88-2.34-.687-7.627 4.697-3.966 5.06 1.518-.161 2.932-.73 4.275-1.577l.231.45c-2.99 2.084-7.434 2.819-6.798-.375-2.021 2.55-3.865 2.303-3.768.633-2.243 2.099-4.314 1.53-3.613-.482-2.145 2.474-4.357 2.165-4.776.756-3.252 1.611-4.747 1.456-4.785-.165-2.884 2.018-5.188 1.613-4.259-.814-2.214 2.63-4.318 2.598-3.707.36-2.924 2.652-4.92 1.901-3.694-.136-1.784 1.957-4.243 2.772-3.71.536-2.616 2.05-4.226 1.302-3.326-.634C9.47 16.944-2.27 18.638 4.87 8.49-2.742 8.56-1.866.557 11.085.646l-.033.469zM7.196 7.929C13.59 8.762 24.241 3 23.104 1.157c-1.33-1.606-7.395.174-15.908 6.772zm13.9.715c-2.228 2.906-3.949 4.495-5.021 4.722-.846.179-.966-.209-.7-.854.826-1.787 3.753-3.839 5.722-3.868zm6.667.033c-2.228 2.907-3.949 4.495-5.021 4.722-.847.179-.966-.209-.7-.853.826-1.788 3.752-3.84 5.721-3.869zm21.5.033c-2.228 2.907-3.95 4.495-5.022 4.722-.846.179-.965-.208-.699-.853.825-1.788 3.752-3.84 5.72-3.869zM34.446 6.686c.28.274.246.752-.076 1.065-.323.313-.815.344-1.095.07-.28-.274-.247-.752.076-1.065.323-.313.814-.344 1.095-.07zm-.338 4.865c4.491-3.145 6.554-5.597 5.712-6.118-2.47 1.55-5.039 4.118-5.712 6.118zm5.089.065c4.491-3.144 6.553-5.597 5.712-6.118-2.47 1.55-5.04 4.118-5.712 6.118z" fill="#393939" fill-rule="evenodd"/></svg>