<svg width="47" height="6" xmlns="http://www.w3.org/2000/svg"><path d="M6.212 5.965H3.035a2.585 2.585 0 01-1.976-.812c-.53-.53-.812-1.235-.812-2.047s.282-1.482.777-2.012c.494-.53 1.2-.776 2.011-.776h3.177L5.4 1.765H3.53c-.742-.036-1.342.53-1.377 1.27v.106c0 .353.141.706.388.953.247.247.6.388.988.388H5.4l.812 1.483zm4.518 0V3.847H8.434v2.118H6.776V.353h1.66V2.4h2.293V.353h1.66v5.612zm5.505-1.483h1.447l-1.2-2.823-1.94 4.306h-1.59L15.636.318h1.836l2.858 5.647h-3.14zm19.765 0h1.447l-1.2-2.823-1.941 4.306h-1.588L35.365.318H37.2l2.894 5.647h-3.141zm-6.282-1.87l.953 1.376h.847l-.283.53h-1.411c-.353 0-.706-.106-.989-.389a1.364 1.364 0 01-.388-.953c0-.388.141-.74.388-.988.247-.247.6-.388.989-.388h3.494l.706-1.447h-4.165c-.812 0-1.483.247-2.012.776-.53.53-.776 1.165-.776 1.977s.247 1.518.776 2.047c.53.53 1.235.847 1.977.812h1.517l1.588-3.353h-3.211zm15.106 3.353l-2.789-3.106v3.106h-1.411V.318h1.411l2.789 3.106V.353h1.411v5.612zm-19.73 0l-2.823-3.106v3.106h-1.377V.318h1.377l2.823 3.106V.353h1.412v5.612z" fill="#393939"/></svg>