<svg width="27" height="16" xmlns="http://www.w3.org/2000/svg"><path d="M13.428.076c.584 0 1.16.023 1.725.067-1.25 5.626-1.474 10.763-1.477 15.721a19.68 19.68 0 01-.533 0C13.14 10.907 12.916 5.77 11.666.146c.577-.046 1.165-.07 1.762-.07zm-.883 15.772c-.264-.01-.526-.026-.786-.045-.093-6.465-1.747-10.508-5.314-14.543A18.382 18.382 0 019.176.492c2.342 4.616 3.229 8.287 3.37 15.356zm-1.393-.1a21.51 21.51 0 01-.865-.106c.032-1.758-.228-3.61-.818-5.057-1.13-2.773-3.325-5.253-7.2-6.89a11.017 11.017 0 012.08-1.48c3.173 1.796 6.865 6.601 6.803 13.534zm-1.589-.225C4.122 14.536.144 11.521.144 7.971c0-.925.27-1.814.767-2.64 2.719.504 5.537 2.032 7.221 4.385 1.132 1.58 1.68 3.493 1.431 5.807zM17.646.485c.95.19 1.854.443 2.696.75-3.583 4.045-5.243 8.093-5.335 14.574a19.57 19.57 0 01-.734.04c.14-7.073 1.028-10.744 3.373-15.364zm4.815 1.706c.795.44 1.5.936 2.097 1.48-3.913 1.636-6.126 4.126-7.262 6.914-.59 1.45-.85 3.308-.817 5.07-.285.04-.574.074-.866.103-.065-6.97 3.664-11.791 6.848-13.567zm3.475 3.125c.502.83.776 1.724.776 2.655 0 3.57-4.021 6.597-9.508 7.568-.252-2.321.295-4.239 1.429-5.823 1.7-2.377 4.56-3.911 7.303-4.4z" fill="#393939" fill-rule="evenodd"/></svg>