<svg width="24" height="16" xmlns="http://www.w3.org/2000/svg" xmlns:xlink="http://www.w3.org/1999/xlink"><defs><path id="a" d="M0 0h23.218v15.836H0z"/></defs><g fill="none" fill-rule="evenodd"><mask id="b" fill="#fff"><use xlink:href="#a"/></mask><path d="M11.609 15.199c5.65 0 10.233-2.767 10.233-7.28 0-4.515-4.583-7.281-10.233-7.281S1.376 3.404 1.376 7.918s4.582 7.28 10.233 7.28m9.83-7.28c0-4.337-4.402-6.994-9.83-6.994-5.429 0-9.83 2.657-9.83 6.994 0 3.09 2.67 5.375 5.662 6.148.06.016.122.027.184.034v.011c1.7.234 3.82.126 3.82-1.21V4.014L7.625 6.02v3.214c0 2.017-1.349 2.673-2.42 2.475-1.537-.285-2.613-1.92-2.613-3.809 0-4.074 4.038-6.572 9.017-6.572 4.978 0 9.016 2.498 9.016 6.572 0 1.888-1.076 3.524-2.613 3.809-1.07.198-2.42-.458-2.42-2.475V6.02l-3.82-2.007V12.9c0 1.336 2.12 1.444 3.82 1.21v-.01c.063-.007.124-.018.184-.034 2.993-.773 5.663-3.058 5.663-6.148m-9.83 7.919c6.41 0 11.609-3.01 11.609-7.919S18.019 0 11.608 0C5.199 0 0 3.009 0 7.918c0 4.91 5.199 7.919 11.609 7.919" fill="#393939" mask="url(#b)"/></g></svg>