<svg width="17" height="16" xmlns="http://www.w3.org/2000/svg" xmlns:xlink="http://www.w3.org/1999/xlink"><defs><path id="a" d="M0 0h16.077v15.973H0z"/></defs><g fill="none" fill-rule="evenodd"><mask id="b" fill="#fff"><use xlink:href="#a"/></mask><path d="M12.178 13.13c-1.66 1.681-7.172 1.32-8.183 0-1.238-2.72-1.683-5.506-1.53-8.342-.044-.942.265-1.578.928-1.906 2.301-1.033 6.903-1.146 9.038-.041.881.34 1.204 1.19 1.168 2.426.07 3.102-.564 5.667-1.42 7.862zM1.323 4.77c.182-1.123.9-1.95 2.052-2.617C5.89.493 9.88.47 12.754 2.212c1.037.54 1.635 1.367 1.915 2.438.58 3.046.075 5.706-1.208 8.006-1.4 3.206-8.809 3.26-10.55.374C1.439 11.032.72 7.702 1.324 4.77zm6.715 11.203C3.6 15.973 0 12.397 0 7.986 0 3.576 3.6 0 8.038 0c4.439 0 8.039 3.576 8.039 7.986s-3.6 7.987-8.039 7.987zM10.021 4.94h2.038l-.007.725-.667-.002-.007 5.714h-.665l-.03-5.71-.663-.004.001-.723zm-.813 2.5h-.919V5.635l.57-.002.349.847v.96zm.665 3.937h-.665L9.204 8.3h-.917l-.015 3.079h-.6V4.921H9.24L9.873 6.2v5.178zm-3.659.019h.665V4.922h-.665v6.475zM3.981 4.94h1.932v.713l-1.266.002.002 1.928.994.001.004.723-.997-.002-.004 3.09h-.665V4.942z" fill="#393939" mask="url(#b)"/></g></svg>