<svg width="30" height="16" xmlns="http://www.w3.org/2000/svg"><path d="M10.778 6.769c0 .14.005.257-.002.372-.007.122.05.155.162.153.251-.006.502-.002.754-.002h.379v1.869h.793V7.28h1.28v-.511h-3.366zm-3.64 2.408c.204 0 .365-.016.52.003.239.03.396-.05.478-.275.05-.135.144-.172.285-.168.38.01.761.019 1.14-.004.243-.015.403.05.499.279.026.064.096.15.151.154.253.017.508.007.788.007-.033-.069-.046-.104-.065-.136-.45-.736-.9-1.472-1.355-2.205-.024-.038-.09-.07-.136-.071a9.806 9.806 0 00-.715.001.232.232 0 00-.16.095c-.315.494-.623.992-.93 1.491-.162.26-.318.525-.5.829zM20.78 6.764c0 .497.005.973-.002 1.449-.004.278-.104.43-.377.487-.241.049-.5.065-.744.038-.402-.045-.53-.216-.535-.619-.002-.251 0-.502-.001-.753v-.594h-.78c0 .517-.001 1.02.001 1.522.003.499.211.809.707.887.472.074.959.07 1.439.07.187 0 .38-.064.559-.132.273-.105.494-.294.505-.603.021-.582.006-1.165.006-1.752h-.778zm4.088 0v1.838l-.044.03c-.009-.024-.012-.052-.027-.073-.394-.565-.788-1.13-1.185-1.692-.03-.043-.078-.104-.118-.105-.37-.008-.742-.004-1.115-.004V9.16h.751V7.413l.051-.014c.053.062.11.119.157.184.343.483.682.968 1.028 1.45.041.057.11.132.17.134.345.013.692.006 1.057.006V6.764h-.725zm-7.387.565v-.235c.002-.298.005-.324-.294-.354a16.456 16.456 0 00-1.482-.08c-.3-.002-.604.04-.874.206-.242.15-.335.401-.27.785.038.222.161.336.443.39.582.108 1.166.207 1.746.322.075.015.176.093.193.16.035.133-.099.156-.189.159-.448.013-.898.033-1.346.015-.279-.011-.555-.085-.856-.135 0 .127.01.242-.003.356-.018.16.06.218.202.237.242.032.482.082.726.102.592.048 1.187.057 1.76-.132.134-.044.31-.151.347-.268.18-.561.102-.953-.49-1.06-.565-.1-1.128-.203-1.69-.312-.065-.012-.12-.07-.179-.107.057-.044.11-.12.172-.127.28-.032.564-.073.844-.059.403.02.804.086 1.24.137zM3.491 9.156c.874 0 1.724.03 2.571-.01.551-.026.836-.4.846-.961a7.434 7.434 0 00-.001-.386c-.02-.579-.243-.86-.804-.996a1.752 1.752 0 00-.401-.044c-.676-.005-1.352-.002-2.028-.002h-.183v2.4zm-.328-3.965c.084.02.108.03.133.03 1.088-.019 2.177-.037 3.266-.064.067-.002.155-.06.197-.119a7.125 7.125 0 011.82-1.74c1.626-1.092 3.44-1.603 5.378-1.707 1.475-.08 2.92.097 4.321.574 1.659.565 3.093 1.455 4.148 2.89.046.063.16.103.244.105 1.043.027 2.087.045 3.13.063.058.001.117-.01.193-.017-.03-.064-.045-.1-.065-.132-.43-.718-.95-1.372-1.59-1.905-.7-.584-1.453-1.106-2.182-1.656-.268-.203-.555-.275-.903-.274-4.543.014-9.086.008-13.628.016a.91.91 0 00-.484.14 34.09 34.09 0 00-1.545 1.117 8.222 8.222 0 00-.888.772c-.412.421-.802.865-1.183 1.314-.142.166-.232.376-.362.593zm22.85 5.39c-.104-.013-.147-.025-.19-.024-1.018.021-2.036.041-3.054.07-.063.002-.143.07-.183.129-.181.264-.315.57-.532.8-.441.467-.858.887-1.335 1.313-1.31 1.31-3.119 1.428-4.946 1.547-2.068.03-3.956-.08-5.818-.885-.767-.332-1.488-.736-2.071-1.347-.338-.354-.65-.732-.988-1.086-.091-.096-.232-.2-.353-.204a126.69 126.69 0 00-2.957-.053.295.295 0 00-.22.113c-.03.048.004.163.046.222.182.258.366.515.569.757.873 1.042 1.951 1.848 3.059 2.619.372.259.759.466 1.237.342.006-.002.013 0 .02 0 .908.003 1.817.007 2.726.008 3.41 0 6.819.001 10.229-.004.154 0 .334-.022.458-.102.492-.315.976-.646 1.447-.993.966-.71 1.842-1.514 2.516-2.515.14-.207.22-.454.34-.707zm3.319-2.934v.696c-.062.315-.105.635-.188.944-.331 1.222-1.042 2.218-1.907 3.113-1.192 1.235-2.599 2.186-4.075 3.041a.844.844 0 01-.332.085c-.365.036-.73.07-1.096.09-1.73.102-3.457.234-5.187.289a60.941 60.941 0 01-4.27-.02c-1.872-.072-3.741-.21-5.61-.328-.234-.015-.494-.031-.69-.14a19.081 19.081 0 01-2.982-2.032c-1.06-.888-1.999-1.879-2.616-3.138-.01-.02-.035-.032-.053-.047-.41-1.479-.458-2.949 0-4.41.038-.057.08-.112.112-.173a8.937 8.937 0 012.02-2.569A18.47 18.47 0 015.95.571a.769.769 0 01.286-.105C7.262.38 8.288.293 9.316.225a44.12 44.12 0 012.412-.116c1.842-.022 3.686-.063 5.527-.01 1.762.052 3.521.21 5.281.328.22.015.47.029.651.135.645.377 1.285.767 1.89 1.202 1.084.778 2.14 1.589 2.928 2.697.523.737.974 1.503 1.18 2.39.062.263.099.53.147.796z" fill="#393939" fill-rule="evenodd"/></svg>