<svg width="37" height="6" xmlns="http://www.w3.org/2000/svg"><path d="M4.435 0h2.62c.035 0 .07-.001.106.002.059.006.098.032.097.1v1.08c0 .061-.026.094-.09.096-.047.001-.095.004-.142.004l-4.886.001c-.063 0-.126.003-.188.007-.138.01-.224.097-.225.235-.002.307-.002.614-.002.92v1.911l.001.09c.005.157.087.242.243.251.022.002.045.001.068.001h3.405c.1 0 .1 0 .1-.103 0-.302-.001-.604.002-.906.001-.071-.022-.089-.09-.089-.853.002-1.706.002-2.56.002L2.797 3.6c-.07-.002-.106-.038-.107-.108V2.436c0-.069.037-.101.1-.108.03-.003.061-.001.091-.001h4.191c.183 0 .188.005.188.184v3.292c0 .17-.013.183-.185.183-1.724 0-3.448.002-5.172-.001a2.99 2.99 0 01-1.001-.147c-.484-.17-.764-.514-.853-1.013a3.049 3.049 0 01-.045-.517 340.2 340.2 0 01-.002-2.673 2.3 2.3 0 01.081-.633C.216.542.525.261.975.122c.261-.082.53-.117.802-.119C2.663-.002 3.55.001 4.435.001zm8.013 0h2.25c.035 0 .07-.002.105.003.058.01.095.04.095.106v1.065c0 .063-.03.1-.094.103-.045.003-.09.005-.136.005l-4.084.001c-.068 0-.136.003-.204.007-.147.008-.235.09-.238.238-.005.247 0 .493-.002.74 0 .048.02.062.063.06.023-.003.046-.001.068-.001h4.311c.189 0 .197.008.197.193v.93c0 .13-.022.151-.154.151H10.26c-.12 0-.12 0-.12.124v.68c0 .206.086.293.293.293h4.335c.099.007.13.038.13.135v1.02c0 .094-.024.12-.117.132-.025.003-.05.001-.075.001-1.47 0-2.94.003-4.41-.001-.378-.001-.753-.039-1.105-.196-.414-.185-.648-.513-.73-.951a2.758 2.758 0 01-.046-.494c-.005-.906-.003-1.812-.002-2.718 0-.255.03-.506.123-.746.154-.4.454-.635.852-.759.259-.08.526-.116.795-.118.755-.005 1.51-.002 2.265-.002zm7.462 0h2.25c.035 0 .07-.001.105.003.056.008.092.038.092.1v1.079c0 .06-.031.093-.092.096-.045.001-.09.004-.136.004l-4.115.001a2.7 2.7 0 00-.188.007c-.136.01-.222.093-.224.227-.004.252 0 .504-.002.755 0 .045.019.058.059.055.022-.002.045 0 .068 0h4.379c.108.003.132.026.132.135v1.004c0 .112-.024.135-.14.135h-4.356c-.166.001-.14-.02-.141.146-.002.207.006.413-.003.62-.01.242.082.334.338.333.977-.004 1.953-.002 2.93-.002h1.321c.15 0 .17.022.17.17v.98c0 .103-.025.13-.126.138h-.06c-1.473 0-2.945.003-4.417-.001a2.958 2.958 0 01-.965-.141c-.493-.17-.778-.519-.868-1.026a2.981 2.981 0 01-.044-.502 340.03 340.03 0 010-2.643c0-.224.017-.446.08-.664.137-.483.465-.766.936-.901.248-.072.503-.104.76-.105C18.404-.002 19.156 0 19.91 0zm11.95 2.58l.385-.419c.597-.652 1.194-1.302 1.789-1.956a.596.596 0 01.46-.204h1.616c.027 0 .056.002.08.011.04.014.059.043.035.083-.022.039-.044.08-.074.113l-2.476 2.718c-.298.328-.597.654-.893.984a.206.206 0 00-.048.125c-.003.57-.002 1.138-.002 1.707v.06c-.001.159-.027.184-.185.184h-1.359c-.15 0-.18-.028-.18-.18-.001-.59-.002-1.179 0-1.768a.182.182 0 00-.052-.134A3717.26 3717.26 0 0127.66.279c-.038-.041-.078-.08-.108-.126-.02-.032-.04-.081-.028-.109.01-.024.065-.041.101-.042.282-.003.564-.002.846-.001.249 0 .498.002.747 0a.662.662 0 01.525.233c.688.762 1.38 1.522 2.069 2.282.015.017.027.036.049.064m-4.458 3.406c-.72 0-1.44.003-2.16 0a3.34 3.34 0 01-.762-.083c-.524-.125-.822-.464-.917-.982a3.579 3.579 0 01-.061-.629C23.497 2.928 23.5 1.564 23.5.2V.124c.005-.087.04-.123.128-.123h1.45c.095 0 .132.038.136.133v.105l.001 4.04c0 .053.004.106.011.158.02.14.105.22.246.23.073.006.146.01.218.01h3.89c.24 0 .24.001.24.236v.937c0 .1-.029.129-.13.136h-2.286" fill="#393939" fill-rule="evenodd"/></svg>