<svg width="32" height="16" xmlns="http://www.w3.org/2000/svg"><path d="M32 8.018C32 12.405 24.816 16 16 16 7.147 16 0 12.405 0 8.018 0 3.595 7.147 0 16 0c8.816 0 16 3.595 16 8.018zM15.238 6.903c1.379-.251 2.721-.719 3.773-1.114 3.41-1.187 5.007-2.41 5.333-2.697.436-.396.11-.54-.29-.683-2.322-.683-5.841-1.187-8.09-1.079-1.633.036-2.54 1.798-2.903 2.553-1.705 3.56 1.343 3.2 2.177 3.02zM4.79 11.937c.073-.144 2.758-6.364 5.914-9.744.399-.36-.036-.431-.544-.323-5.225 1.006-8.853 3.38-8.853 6.112 0 1.51 1.088 2.912 2.903 4.027.254.144.507.036.58-.072zm11.937-2.84c-1.38.251-2.722.719-3.774 1.114-3.41 1.187-5.006 2.445-5.333 2.733-.436.36-.109.54.29.647 2.322.683 5.841 1.186 8.091 1.115 1.633-.072 2.54-1.834 2.939-2.59 1.669-3.559-1.379-3.163-2.213-3.02zm13.932-1.079c0-1.51-1.053-2.876-2.903-3.991-.254-.18-.472-.072-.58.072-.073.108-2.758 6.328-5.914 9.708-.363.395.036.467.544.36 5.225-1.043 8.853-3.417 8.853-6.149z" fill="#393939"/></svg>