<svg width="40" height="16" xmlns="http://www.w3.org/2000/svg" xmlns:xlink="http://www.w3.org/1999/xlink"><defs><path id="a" d="M0 0h39.77v15.908H0z"/></defs><g fill="none" fill-rule="evenodd"><mask id="b" fill="#fff"><use xlink:href="#a"/></mask><path d="M0 7.954C0 3.56 8.903 0 19.885 0 30.867 0 39.77 3.56 39.77 7.954c0 4.393-8.903 7.954-19.885 7.954C8.903 15.908 0 12.347 0 7.954zm24.32.696a.067.067 0 00-.054-.051 27.19 27.19 0 00-1.724-.197c-.034-.006-.058-.037-.035-.112 1.838-1.934 2.536-4.395 1.606-6.32a.067.067 0 01.075-.059c6.324.767 10.942 3.182 10.942 6.043 0 3.478-6.825 6.297-15.245 6.297-8.42 0-15.245-2.82-15.245-6.297 0-3.015 5.13-5.535 11.981-6.152.033 0 .061.026.063.079l-1.487 8.19a.994.994 0 00.976 1.183l.053.004c1.327-.07 2.753-.484 4.1-1.261.389-.225.755-.47 1.1-.732a.066.066 0 01.072-.007c.449.299.707.649.707 1.023 0 .507-.476.97-1.26 1.322-.91.409-2.236.666-3.711.666-1.25 0-2.393-.185-3.28-.493a.067.067 0 00-.077.054l-.126.695a.067.067 0 00.052.073c1.803.42 3.876.659 6.083.659 2.746 0 4.971-.89 4.971-1.989 0-.427-.336-.822-.909-1.146-.5-.246-.817-.565-.74-.778.081-.222.561-.258 1.13-.105.033.005.064-.015.076-.072l-.094-.517zm-4.435-5.013c0 .043-.001.085-.004.128.072 1.46-.83 3.412-2.48 5.06-.336.338-.687.644-1.043.917a.066.066 0 01-.049.009c-.034-.007-.057-.04-.05-.08L17.875.773a.066.066 0 00-.063-.063C8.904 1.13 1.988 4.213 1.988 7.954c0 4.027 8.013 7.291 17.897 7.291 9.884 0 17.896-3.264 17.896-7.291 0-4.027-8.012-7.291-17.896-7.291-.313 0-.625.003-.937.01a.066.066 0 00-.065.05l-.188 1.038a.067.067 0 00.031.068 1.989 1.989 0 011.159 1.808z" fill="#393939" mask="url(#b)"/></g></svg>