<svg width="32" height="16" xmlns="http://www.w3.org/2000/svg" xmlns:xlink="http://www.w3.org/1999/xlink"><defs><path id="a" d="M0 .07h31.355v15.744H0z"/></defs><g fill="none" fill-rule="evenodd"><g transform="translate(0 .117)"><mask id="b" fill="#fff"><use xlink:href="#a"/></mask><path d="M15.678.69C7.358.69.615 3.935.615 7.94c0 4.006 6.744 7.253 15.063 7.253 8.318 0 15.062-3.247 15.062-7.253 0-4.004-6.744-7.25-15.062-7.25m15.677 7.252c0 4.348-7.02 7.873-15.677 7.873C7.019 15.814 0 12.289 0 7.94 0 3.594 7.02.07 15.678.07c8.658 0 15.677 3.525 15.677 7.872" fill="#393939" mask="url(#b)"/></g><path d="M12.002 4.676l-.704 1.145h.714l-.01-1.145zM9.24 7.252h1.266s-.004-.098.029-.16c.06-.115.217-.39.217-.39h1.274l.003.343s.006.119-.088.21h1.264s-.094-.053-.111-.208l-.159-3.434s-.007-.22.098-.266h-1.254s.088.108-.08.355L9.391 7.123s-.043.082-.15.129zm13.376 1.792l.342-.923h-2.566s.092.081-.026.41c-.119.33-1.158 3.131-1.158 3.131s-.184.368-.237.368h2.645l.316-.934s-.04.053-.29.053h-1.118l.237-.632h.868s.184-.013.224.04l.355-.998s-.026.09-.263.09h-.842l.25-.697h1.066s.144-.02.197.092zm-6.397-.922s.098.052.098.302v3.382s-.013.185-.083.223h1.058s0-.078.105-.21 2.302-3.079 2.302-3.079.502-.618.633-.618h-1.514s.119.079.026.223c-.092.145-1.438 2.158-1.438 2.158l.017-2.03s-.002-.326.129-.353l-1.333.002zm-2.52 3.067c.356.065.747-.19.95-1.007.31-1.236-.26-1.246-.364-1.259-.315-.038-.736.325-.907 1.082-.078.345-.161 1.094.322 1.184zm-.089.923c1.424 0 2.271-1.397 2.271-2.399 0-1.05-.432-1.707-1.418-1.707-1.26 0-2.08.956-2.292 2.143-.195 1.092.422 1.963 1.44 1.963zm10.756-2.306s.483.036.631-.342c.175-.446-.261-.435-.261-.435h-.357l-.263.777h.25zm-.94 2.224c-.1.002-.03-.24-.03-.24l.412-1.116.596 1.21c.04.08.02.145.02.145h1.428c-.131 0-.276-.25-.276-.25l-.687-1.232c.96 0 1.25-.918 1.25-.918.504-1.584-1.102-1.507-1.102-1.507h-1.619c.119.131.027.408.027.408s-1.056 2.907-1.135 3.13a1.02 1.02 0 01-.23.368l1.345.002zM10.13 9.006l-.267.785h.25s.487.043.666-.344c0 0 .21-.443-.377-.443l-.272.002zm-.978 3.01c-.04 0-.04-.128-.04-.128l.463-1.228.617 1.21c.04.08.02.145.02.145h1.379c-.132 0-.268-.25-.268-.25l-.686-1.232c.96 0 1.267-.952 1.267-.952.474-1.513-1.12-1.474-1.12-1.474H9.152c.119.132.026.408.026.408l-1.091 3.12c-.08.224-.224.38-.224.38h1.29zm-4.41-1.617H7.26l.306-.877H5.937l1.857-.643.123-.355-2.859.938-.316.937zm14.043-4.04s.005-.002.182-.002c.27 0 .767-.06 1.101-.873.55-1.338-.217-1.293-.217-1.293h-.296l-.77 2.168zm-.167-3.007s.098.158-.03.523c-.129.365-1.135 3.08-1.135 3.08s-.08.254-.188.304l1.58-.002s1.913.071 2.506-1.941c0 0 .75-1.984-1.421-1.964h-1.312zm-5.28 3.896h1.154s-.079-.117-.03-.245c.07-.178.682-1.846.682-1.846l.266 2.091h1.046l1.372-3.72s.056-.174.132-.174l-1.111-.003s.032.128-.008.227-.671 1.787-.671 1.787l-.247-2.014H14.73s.062.099.022.207l-1.265 3.474s-.08.216-.148.216zm-4.301-.865H8.01s.95-2.532 1.027-2.723c.135-.34.216-.316.216-.316H7.838c.176.084.02.414.02.414S6.724 6.916 6.645 7.074c-.079.158-.138.178-.138.178H8.96l.343-.935c-.03.089-.265.066-.265.066zM25.08 4.845h-2.516l-.307.877h1.629l-1.858.643-.123.355 2.86-.937.315-.938zm5.27 3.213c0 3.79-6.57 6.863-14.673 6.863-8.104 0-14.673-3.073-14.673-6.863 0-3.79 6.569-6.862 14.673-6.862 8.103 0 14.672 3.073 14.672 6.862z" fill="#393939"/></g></svg>