<svg width="22" height="16" xmlns="http://www.w3.org/2000/svg"><path d="M15.756 3.298l-.091.194-.092.195-.092.196-.093.195-.092.194-.091.195-.092.196-.275.583-.093.197-.092.194-.091.194-.092.197-.183.389-.043.056-.038.056-.037.058-.034.056-.031.056-.06.112-.028.056-.036.05-.033.051-.034.05-.032.053-.061.103-.06.103-.032.05-.032.05-.034.05-.033.048-.036.048-.037.045-.04.045-.042.043-.002.015-.004.013-.006.011-.007.013-.019.023-.02.024-.012.013-.01.013-.01.014-.008.014-.007.017-.006.017-.004.019-.001.02-.058.05-.054.044-.025.022-.02.02-.012.014-.009.011-.007.013-.008.013-.127.135-.118.125-.112.116-.112.114-.114.112-.12.118-.127.124-.138.134-.02.002-.02.004-.018.007-.017.011-.015.012-.013.011-.015.015-.013.013-.025.028-.024.024-.011.01-.013.007-.013.004-.015.002-.015.02-.017.017-.019.017-.018.013-.043.026-.043.025-.02.013-.023.013-.02.015-.021.017-.02.016-.018.02-.017.025-.016.026-.043.015-.043.021-.044.02-.044.025-.043.024-.043.028-.043.026-.045.03-.008.013-.01.012-.01.009-.013.01-.028.016-.032.015-.034.013-.033.017-.017.01-.017.01-.015.012-.015.013-.1.056-.104.056-.103.054-.104.054-.107.053-.162.073-.057.022-.056.022-.058.023-.065.041-.067.04-.068.035-.067.034-.07.033-.068.03-.071.03-.07.03-.144.054-.142.054-.145.053-.144.054.076.075h3.676l-.004.028-.011.056-.008.028-.037.108-.024.055-.025.052-.028.052-.028.055-.06.104-.058.107-.03.054-.026.054-.026.056-.022.056H8.097v-.074l.258-.518.258-.516.26-.518.258-.516.26-.516.258-.518.258-.516.26-.516.257-.518.26-.516.258-.516.258-.518.26-.516.258-.516.258-.518.26-.516h3.52zm-.89-2.143l.094.036.095.037.094.038.095.039.094.04.095.04.093.041.096.045.093.045.094.045.095.049.093.048.096.05.093.053.096.052.093.056.086.044.086.046.086.049.084.05.082.053.085.054.082.056.082.058.08.058.08.06.083.061.08.062.079.062.16.127.081.064h.038l.063.057.07.06.074.064.073.067.036.034.035.034.032.033.032.036.026.035.024.034.02.035.017.036h-1.469l-.464.92-.231.462-.234.46-.464.92-.231.46-.232.461-.232.46-.234.46-.464.92-.231.462-.464.92-.234.46.04.037h3.443l.028-.041.03-.038.026-.037.027-.04.024-.038.022-.044.012-.022.009-.024.007-.026.008-.028.03-.043.028-.047.028-.05.026-.053.024-.052.023-.056.018-.057.017-.056-2.98-.037.006-.013.004-.013.005-.011.008-.012.007-.01.008-.007.009-.009.007-.007.02-.014.023-.009.025-.01.024-.007.052-.013.053-.013.026-.007.026-.01.024-.009.023-.013.05-.028.05-.026.051-.025.05-.022.103-.045.102-.043.1-.043.103-.043.05-.024.051-.024.05-.027.051-.026.004-.011.006-.007.005-.01.006-.007.013-.012.013-.009.017-.006.017-.005.018-.006.017-.002.019-.003.017-.006.018-.004.015-.007.015-.01.013-.01.006-.008.006-.008.003-.009.004-.011.036-.008.033-.013.034-.013.03-.017.031-.018.03-.02.029-.022.03-.02.027-.02.03-.021.03-.02.03-.02.032-.016.032-.013.033-.014.036-.007.045-.03.043-.032.043-.033.045-.032.043-.032.043-.026.022-.013.02-.011.023-.01.022-.007.066-.058.063-.058.066-.06.065-.062.131-.125.131-.125.13-.127.132-.126.065-.06.066-.06.063-.06.066-.057.002-.02.005-.02.008-.02.01-.019.012-.016.015-.019.015-.017.015-.019.033-.035.032-.036.015-.018.011-.02.012-.02.01-.02.02-.015.017-.015.016-.017.015-.017.025-.033.022-.036.022-.034.025-.035.015-.015.015-.017.018-.015.02-.015.029-.041.024-.037.045-.071.02-.036.025-.037.024-.038.026-.04.08-.152.081-.154.079-.153.08-.151.08-.154.08-.153.08-.152.08-.153.08-.153.079-.152.08-.153.08-.153.079-.152.08-.153.08-.151.08-.154.012-.002.012-.003.007-.008.008-.005.007-.008.007-.005.012-.004.013-.002.026.028.024.028.023.028.018.028.034.056.03.056.071.126.073.123.071.12.07.121.134.24.032.061.03.062.03.062.03.063.072.178.068.18.06.183.054.186.048.188.041.188.036.19.03.194.024.194.017.194.011.195.006.196v.197l-.006.196-.013.194-.019.195-.022.194-.03.195-.036.19-.04.191-.047.189-.05.187-.059.185-.063.181-.07.18-.074.176-.079.173-.086.17-.09.167-.095.163-.101.157-.107.153-.02.022-.019.023-.018.022-.017.025-.034.048-.032.049-.017.024-.016.024-.02.025-.018.024-.022.024-.023.023-.026.022-.026.02.004.016.002.013-.002.011-.006.011-.01.011-.008.012-.012.01-.013.012-.024.02-.024.023-.01.011-.007.013-.006.014-.002.013-.058.076-.06.075-.063.073-.064.073-.065.071-.065.07-.068.066-.069.068-.07.067-.068.065-.071.066-.071.063-.144.13-.146.126-.02.008-.02.011-.018.013-.017.013-.032.032-.028.036-.03.035-.031.032-.017.013-.017.013-.02.012-.021.007-.02.02-.023.017-.023.017-.02.013-.043.026-.04.025-.02.013-.019.013-.019.015-.018.017-.017.017-.017.02-.015.024-.015.026-.045.015-.043.02-.043.022-.043.024-.045.024-.042.028-.043.026-.045.029-.06.042-.062.044-.063.04-.066.044-.065.043-.064.04-.063.044-.06.04-.043.016-.043.015-.041.015-.041.017-.04.018-.037.02-.017.012-.017.013-.015.011-.015.015-.116.043-.115.047-.115.05-.114.053-.112.052-.108.057-.107.056-.102.056-.021-.006-.019-.002h-.015l-.015.004-.011.004-.011.007-.011.008-.01.007-.016.019-.02.017-.009.007-.01.004-.012.003-.015.002h-.02l-.021.002-.02.002-.02.004-.037.007-.035.013-.038.017-.037.019-.04.022-.04.027-.058.014-.058.014-.058.014-.058.014-.058.015-.058.015-.058.013-.058.014-.217.06-.22.057-.223.052-.226.047-.23.043-.232.039-.236.032-.235.03-.24.024-.24.019-.242.015-.243.01-.243.006h-.243l-.245-.003-.243-.008-.245-.013-.243-.019-.24-.02-.242-.028-.24-.03-.239-.037-.235-.04-.234-.046-.23-.05-.228-.053-.226-.06-.22-.064-.22-.07-.213-.072-.21-.077-.207-.082-.057-.028-.06-.026-.064-.024-.062-.025-.128-.048-.131-.05-.066-.029-.063-.028-.066-.032-.063-.033-.064-.036-.062-.039-.03-.023-.03-.02-.06-.049-.035-.007-.035-.011-.034-.013-.034-.014-.033-.016-.034-.017-.032-.019-.033-.019-.066-.039L5.334 14l-.034-.019-.034-.017-.035-.016-.036-.015-.022-.026-.024-.023-.023-.019-.024-.016-.024-.014-.027-.013-.024-.01-.026-.012-.024-.01-.027-.01-.024-.014-.026-.013-.023-.017-.024-.019-.022-.022-.023-.026-.015-.002-.013-.004-.013-.003-.01-.008-.023-.018-.045-.042-.023-.018-.01-.008-.014-.005-.013-.004h-.015l-.023-.026-.022-.025-.022-.02-.025-.019-.048-.032-.049-.03-.022-.013-.023-.015-.022-.015-.02-.016-.021-.02-.019-.02-.017-.024-.015-.026-.028-.015-.028-.017-.026-.017-.026-.02-.026-.02-.023-.021-.024-.023-.023-.022-.04-.047-.038-.047-.036-.045-.03-.045v-.037l3.56-.037.019-.015.017-.015.015-.017.01-.015.01-.017.008-.019.007-.016.006-.017.01-.036.012-.035.008-.015.007-.017.011-.015.013-.015.045-.11.049-.11.05-.107.05-.109.051-.11.049-.114.024-.058.024-.06.045-.123-4.41-.038.008-.013.009-.013.007-.011.01-.011.02-.019.025-.015.024-.013.026-.011.026-.01.028-.007.06-.011.062-.013.032-.008.03-.01.03-.01.03-.013.136-.051.135-.052.134-.056.133-.056.262-.12.129-.062.129-.063.128-.064.13-.065.127-.064.258-.13.127-.066.13-.064.13-.063.06-.057.063-.056.065-.054.068-.05.035-.025.036-.022.035-.023.071-.04.036-.017.037-.017.036-.015.015-.026.017-.025.018-.02.019-.019.02-.015.023-.015.02-.013.023-.013.043-.024.041-.027.019-.013.018-.016.017-.017.017-.02.02-.008.021-.011.019-.014.02-.013.036-.032.034-.031.032-.03.03-.026.014-.01.015-.007.015-.006h.013l1.006-.978.006-.013.004-.013.005-.013.008-.013.015-.022.016-.021.02-.019.02-.018.02-.019.023-.017.02-.019.023-.018.02-.019.019-.019.017-.02.015-.023.005-.013.011-.026.004-.013.073-.079.07-.08.067-.084.067-.086.065-.086.064-.09.062-.09.06-.091.06-.092.057-.092.056-.093.056-.093.055-.094.052-.093.052-.092.053-.093.076-.038.058-.12.056-.121.056-.121.058-.122.056-.123.057-.122.056-.124.058-.123.057-.123.06-.124.062-.123.062-.122.065-.123.068-.121.067-.122.07-.12.046-.097.044-.1.045-.094.047-.097.047-.096.049-.095.046-.096.05-.095.05-.095.048-.096.05-.095.101-.19.05-.098.051-.097.05-.1.04-.037-.04-.037H7.245l-.267.533-.27.533-.266.533-.27.532-.267.535-.538 1.066-.268.533-.27.532-.266.533-.27.535-.267.533-.27.533-.266.533-.539 1.065-.013.008-.013.004-.011.003-.011.002-.012.002-.007-.002h-.01l-.007-.004-.015-.007-.011-.01-.01-.012-.009-.015-.019-.034-.02-.034-.011-.017-.015-.013-.008-.007-.01-.006-.008-.003-.012-.004-.015-.041-.04-.075-.021-.036-.023-.033-.02-.038-.02-.037-.016-.041-.019-.015-.017-.017-.014-.017-.012-.019-.018-.039-.015-.039-.015-.037-.01-.017-.009-.017-.013-.015-.013-.011-.017-.011-.02-.01-.023-.062-.026-.061-.028-.06-.028-.058-.06-.112-.064-.11-.03-.055-.03-.054-.028-.054-.026-.054-.026-.055-.022-.056-.019-.054-.017-.056-.028-.071-.028-.073-.026-.075-.026-.075-.024-.076-.025-.079-.045-.157-.043-.159-.037-.16-.034-.16-.031-.155-.017-.099-.015-.099-.013-.099-.01-.099-.009-.1-.011-.197-.002-.101-.002-.1.002-.098.002-.1.004-.099.005-.097.008-.099.009-.099.01-.097.012-.097.012-.098.015-.097.015-.095.016-.097.017-.096.019-.095.02-.094.042-.187.044-.183.047-.181.05-.178.027-.045.011-.022.01-.025.018-.048.017-.049.01-.024.009-.024.01-.025.014-.024.013-.024.017-.023.019-.022.018-.02.032-.085.032-.082.035-.08.038-.08.039-.078.04-.078.042-.077.043-.074.088-.152.092-.151.09-.15.087-.155.028-.013.023-.015.018-.017.017-.017.015-.017.013-.016.012-.017.01-.019.012-.017.011-.018.011-.017.015-.017.017-.017.019-.015.024-.015.026-.015.002-.02.006-.02.007-.016.01-.017.01-.015.014-.015.015-.015.013-.015.015-.013.015-.015.013-.015.011-.015.01-.016.007-.017.006-.019.002-.02.056-.043.052-.047.05-.047.049-.049.092-.1.088-.1.042-.048.045-.047.045-.047.047-.043.022-.02.025-.02.026-.02.024-.018.026-.019.028-.017.027-.015.03-.015.03-.039.03-.04.03-.033.031-.032.034-.031.031-.029.036-.028.034-.026.069-.052.07-.054.036-.028.038-.03.035-.032.036-.034.045-.028.043-.028.043-.028.045-.028.043-.028.043-.03.043-.028.044-.028.015-.019.015-.018.017-.015.017-.013.017-.013.019-.01.016-.011.019-.008.036-.018.035-.017.017-.01.017-.01.017-.012.014-.013.029-.026.03-.024.027-.02.03-.02.058-.031.058-.03.101-.062.101-.062.103-.058.1-.058.104-.056.103-.054.103-.054.205-.101.105-.05.105-.047.104-.047.107-.047.106-.045.109-.043.108-.043.1-.028.096-.028.096-.028.093-.028.095-.028.096-.028.097-.028.1-.028.037-.013.035-.013.038-.01.035-.009.073-.017.073-.015.071-.013.073-.017.037-.009.036-.01.035-.012L8.33.78l.108-.025.11-.022.11-.02.111-.021.112-.019.112-.019.113-.015.114-.017.114-.013.114-.013.114-.011.116-.011.116-.01.115-.009.116-.007.118-.008.116-.005.118-.004.118-.004.117-.004.238-.001h.237l.24.003.237.008.24.01.238.012.182.015.181.019.182.024.181.024.18.03.179.032.18.034.177.037.178.041.175.041.176.047.174.047.172.049.172.052.168.054.168.054zm-.966-.9l.022.012.023.011.022.012.024.007.027.008.024.005.026.006.024.003.05.006.051.002.047.002h.047l.237.065.24.068.235.07.236.074.235.076.232.08.116.042.116.043.114.043.114.045.114.046.114.045.112.049.114.049.112.048.11.05.113.053.11.052.109.055.11.056.108.056.109.058.106.058.109.061.105.06.106.064.035.01.034.01.032.015.032.017.03.019.03.02.03.023.028.022.06.047.06.043.03.022.033.02.033.018.036.015.058.04.058.038.058.038.058.039.058.04.058.042.03.023.028.024.03.026.028.028.063.047.062.047.063.046.064.047.062.047.063.047.064.046.061.049.851.789.002.013.002.013.002.013.003.012.01.022.013.02.013.02.017.018.019.017.016.017.036.03.032.031.01.017.01.019.004.007.004.011.001.01v.009l.029.023.022.02.022.02.02.023.033.041.03.043.03.043.031.042.02.02.021.022.025.021.026.02.017.03.018.034.021.036.023.037.02.04.02.04.021.043.015.042.015.007.013.01.011.01.014.014.02.028.019.03.033.065.03.062.077.074.078.135.075.14.071.14.066.146.063.146.06.15.056.153.05.154.05.157.044.157.04.16.037.161.032.163.028.164.024.165.02.166.015.167.013.168.008.166.004.169v.168l-.006.168-.01.168-.012.169-.017.168-.023.166-.026.165-.03.166-.035.163-.04.163-.044.16-.049.16-.03.102-.032.101-.033.101-.038.1-.037.098-.04.1-.042.097-.043.097-.047.095-.047.095-.05.096-.053.095-.052.092-.056.093-.056.092-.06.092-.06.09-.063.089-.064.09-.065.088-.07.086-.069.086-.07.086-.074.084-.074.084-.077.084-.078.082-.081.08-.08.081-.083.08-.086.08-.086.078h-.039l-.043.056-.045.056-.022.026-.024.026-.025.026-.024.025-.026.024-.026.024-.028.023-.03.02-.03.019-.032.019-.034.016-.035.015-.015.027-.019.024-.017.02-.02.02-.02.016-.046.03-.024.013-.047.03-.048.032-.025.018-.022.02-.024.025-.021.026-.015.002-.013.004-.013.007-.013.01-.024.024-.025.028-.013.013-.013.015-.015.012-.015.01-.017.012-.017.007-.018.004-.023.002-.035.034-.038.03-.039.028-.037.026-.08.047-.08.042-.08.043-.078.045-.04.027-.037.028-.037.03-.037.033-.028.01-.029.009-.026.013-.028.015-.05.032-.053.033-.05.036-.05.032-.029.015-.026.013-.028.01-.028.008-.078.075-.122.056-.123.056-.122.056-.121.056-.12.055-.121.054-.122.052-.121.053-.122.05-.122.049-.123.046-.125.045-.125.045-.126.041-.129.038-.129.037-.058.026-.058.025-.058.02-.057.019-.058.017-.058.015-.058.015-.058.013-.045.017-.043.016-.043.02-.045.018-.043.017-.043.013-.023.005-.02.004-.023.002-.022.002-.03.018-.03.017-.033.013-.034.012-.036.01-.035.008-.036.008-.037.007-.035.008-.036.007-.035.008-.036.01-.034.012-.033.013-.03.017-.03.019-.139.032-.14.03-.142.028-.142.026-.142.026-.146.024-.144.023-.147.022-.146.02-.148.02-.3.033-.149.015-.15.013-.15.011-.152.012-.151.007-.152.007-.151.008-.154.004-.151.003-.153.002h-.152l-.153-.002-.152-.001-.15-.006-.153-.006-.15-.005-.152-.01-.15-.01-.15-.012-.149-.013-.237-.03-.238-.032-.235-.035-.232-.038-.232-.04-.232-.044-.228-.047-.228-.048-.224-.055-.227-.054-.222-.06-.222-.061-.221-.066-.22-.069-.22-.073-.218-.075-.058-.03-.058-.031-.06-.032-.062-.03-.03-.013-.031-.013-.032-.01-.034-.01-.033-.008-.034-.006-.036-.004-.035-.001-.073-.043-.073-.045-.073-.047-.076-.043-.038-.02-.04-.021-.038-.017-.04-.017-.04-.015-.042-.013-.043-.011-.043-.01-.189-.106-.187-.108-.185-.11-.185-.113-.183-.116-.181-.12-.092-.06-.09-.061-.09-.062-.087-.063-.09-.064-.088-.065-.088-.066-.086-.065-.088-.07-.086-.067-.086-.07-.084-.072-.084-.07-.084-.074-.084-.074-.082-.075-.083-.077-.082-.079-.08-.078-.08-.08-.008-.021-.013-.02-.015-.02-.017-.018-.041-.037-.094-.079-.046-.043-.021-.022-.02-.025-.02-.026-.014-.028-.028-.02-.025-.023-.02-.024-.02-.023-.034-.048-.034-.049-.015-.024-.019-.026-.018-.025-.02-.022-.025-.024-.026-.023-.03-.022-.034-.023-.017-.04-.02-.044-.02-.043-.025-.04-.026-.044-.028-.041-.028-.043-.03-.043-.013-.007-.012-.01-.009-.011-.007-.011-.012-.027-.01-.027-.006-.014-.006-.015-.008-.013-.009-.013-.013-.011-.013-.011-.017-.01-.02-.007-.002-.028-.004-.026-.008-.025-.01-.022-.014-.024-.013-.023-.015-.022-.017-.023-.032-.046-.031-.053-.015-.026-.013-.03-.012-.032-.007-.033-.04-.038-.07-.136-.068-.136-.061-.143-.06-.142-.056-.146-.053-.147-.048-.148-.047-.151-.041-.154-.038-.153-.033-.157-.03-.155-.026-.16-.02-.158-.02-.159-.014-.16-.012-.16-.007-.16L0 7.964v-.163l.006-.16.007-.16.013-.16.017-.16.02-.158.025-.157.03-.157.032-.156.037-.153.04-.153.044-.152.049-.147.037-.103.04-.101.04-.101.044-.101.046-.1.047-.1.048-.1.051-.098.054-.098.054-.097.057-.097.057-.097.06-.096.064-.095.064-.095.065-.096.065-.093.07-.094.07-.093.072-.092.074-.091.075-.092.077-.09.078-.09.08-.09.081-.089.084-.088.084-.086.086-.088.086-.086.09-.086.09-.084.028-.01.026-.009.024-.013.025-.015.022-.015.023-.016.02-.017.02-.017.04-.036.037-.031.02-.015.02-.013.022-.01.02-.009.023-.026.022-.025.025-.022.022-.02.049-.038.048-.034.045-.03.043-.031.02-.017.02-.019.016-.019.015-.018.043-.03.045-.026.043-.028.043-.025.045-.024.043-.02.043-.021.043-.015.017-.02.017-.02.018-.016.02-.017.04-.03.043-.028.043-.03.041-.03.02-.015.02-.018.016-.02.015-.02.028-.007.028-.01.028-.01.027-.012.052-.026.05-.028.05-.028.053-.026.026-.012.027-.01.028-.01.03-.008.02-.02.025-.019.022-.017.024-.017.05-.028.051-.026.05-.024.051-.023.047-.024.047-.028.116-.056.115-.056.116-.054.116-.055.116-.052.116-.048.116-.047.116-.045.007-.013.008-.01.007-.009.008-.005.007-.004.01-.004.007-.002h.01l.039.006.052.004.138-.062.14-.06L6.08.9l.144-.054.143-.053.148-.05.146-.049.15-.046.147-.045L7.11.56l.15-.043.15-.04.152-.039.152-.037.153-.038.151-.035.01-.013.009-.008L8.048.3l.013-.004.013-.002.015-.002.015.002.017.002.032.004.034.002h.016L8.22.3l.015-.004.015-.005.144-.03.144-.03.146-.028.146-.025.15-.024.149-.022.151-.021.152-.019.153-.016.153-.015.155-.013.156-.014.155-.009.157-.01.155-.005.157-.006.157-.003.157-.002h.314l.155.004.157.003.156.008.155.007.153.01.153.01.152.014.151.013.15.015.15.019.147.018.146.021.099.013.097.015.095.013.096.015.093.013.096.015.097.013.1.015z" fill="#393939" fill-rule="evenodd"/></svg>