<svg width="20" height="16" xmlns="http://www.w3.org/2000/svg"><path d="M6.368 7.95c1.444.602 2.406 1.445 3.28 3.34.871-1.895 1.804-2.858 3.278-3.46l3.707-1.328.024.095c.06.421.09.933.09 1.444 0 5.234-3.46 6.287-7.1 6.258-3.64.03-7.07-1.024-7.07-6.258 0-.391 0-.782.06-1.113l.054-.222L6.368 7.95zm9.467-3.63l-.08-.13c-1.295-1.925-3.641-2.377-6.108-2.377-2.467 0-4.874.482-6.138 2.437l-.135.235c2.17 1.241 4.633 1.264 6.273 4.398 1.506-3.23 3.996-3.276 6.188-4.562zm1.754-1.123l-.21-.24C15.453.88 12.294.428 9.647.428 6.97.43 3.72.88 1.825 3.077l-.09.12C.801 4.31.23 5.905.23 8.041c0 6.588 5.355 7.641 9.417 7.641 4.092 0 9.446-1.053 9.446-7.641 0-2.136-.57-3.73-1.504-4.844z" fill="#393939" fill-rule="evenodd"/></svg>