<svg width="22" height="16" xmlns="http://www.w3.org/2000/svg" xmlns:xlink="http://www.w3.org/1999/xlink"><defs><path id="a" d="M0 0h21.05v15.938H0z"/></defs><g fill="none" fill-rule="evenodd"><mask id="b" fill="#fff"><use xlink:href="#a"/></mask><path d="M17.415 9.67l-11.329.102L8.91 7.69l-5.53-.146a7.126 7.126 0 0014.036 2.128zM3.64 6.009l11.357-.102L12.34 7.89l5.277.245.002-.166a7.127 7.127 0 00-13.98-1.96zM0 6.041l2.765-.025A7.972 7.972 0 0110.493 0a7.969 7.969 0 017.967 8.174l2.59.12v1.344l-2.768.025A7.972 7.972 0 012.524 7.97c0-.15.004-.3.013-.448L0 7.454V6.041z" fill="#393939" mask="url(#b)"/></g></svg>