<svg width="13" height="16" xmlns="http://www.w3.org/2000/svg" xmlns:xlink="http://www.w3.org/1999/xlink"><defs><path id="a" d="M0 0h12.66v15.827H0z"/></defs><g fill="none" fill-rule="evenodd"><mask id="b" fill="#fff"><use xlink:href="#a"/></mask><path d="M12.549 7.488c-.23-.48-.945-1.888-1.551-2.987C10.167 2.994 8.683.514 8.514.288 8.347.064 8.254.055 8.1.038L8.078.036C7.853.011 6.902 0 6.33 0 5.84 0 4.8.013 4.556.037c-.228.023-.29.093-.42.263-.18.234-1.688 2.784-2.473 4.201A78.352 78.352 0 00.11 7.488c-.076.172-.11.307-.11.426 0 .126.034.261.11.425.188.41.757 1.543 1.552 2.987.828 1.506 2.324 3.996 2.483 4.213.168.23.277.239.429.252.23.02 1.223.036 1.755.036.574 0 1.612-.023 1.755-.036.142-.013.265-.023.429-.252.15-.209 1.76-2.892 2.484-4.213a78.596 78.596 0 001.55-2.987c.099-.218.112-.333.112-.426a1 1 0 00-.111-.425m-4.058.889c-.841 1.809-3.115 6.006-3.587 6.81l-.073.12c-.07.107-.131.169-.182.166 0 0 .84-1.539 1.497-3.186A75.64 75.64 0 014.162 8.37c-.109-.23-.161-.345-.16-.459 0-.113.054-.227.162-.459.883-1.899 3.045-5.971 3.67-6.94.074-.114.113-.156.165-.156h.005S7.13 1.99 6.508 3.542a75.878 75.878 0 011.987 3.92c.108.23.16.34.16.453 0 .113-.056.23-.164.462" fill="#393939" mask="url(#b)"/></g></svg>