<svg width="26" height="16" xmlns="http://www.w3.org/2000/svg"><path d="M12.556 0C5.622 0 0 3.582 0 8s5.622 8 12.556 8c6.934 0 12.556-3.582 12.556-8S19.49 0 12.556 0zM3.253 4.834c.345 1.445 2.858 2.645 6.26 3.102l-.001.204c0 3.428.986 6.304 2.316 7.086-5.518-.264-9.87-3.308-9.87-7.024 0-1.22.47-2.368 1.295-3.368zm7.508 3.232a23.76 23.76 0 003.59 0c-.083 2.543-.855 4.535-1.795 4.535s-1.712-1.992-1.795-4.535zm4.838-.13c3.478-.467 6.028-1.711 6.28-3.2.877 1.023 1.378 2.206 1.378 3.466 0 3.741-4.411 6.8-9.982 7.029 1.334-.775 2.325-3.656 2.325-7.09l-.001-.205zm-1.955-6.612c3.477.177 6.143 1.19 6.143 2.412 0 .998-1.778 1.856-4.324 2.234-.277-2.136-.953-3.851-1.82-4.646zm.63 4.782a21.011 21.011 0 01-3.436 0c.231-2.016.913-3.477 1.718-3.477.805 0 1.487 1.461 1.718 3.477zM9.649 5.97c-2.546-.378-4.324-1.236-4.324-2.234 0-.412.303-.8.839-1.142a12.64 12.64 0 012.04-.806c.936-.238 2.05-.402 3.264-.464-.866.795-1.542 2.51-1.82 4.646z" fill="#393939" fill-rule="evenodd"/></svg>