<svg width="50" height="17" xmlns="http://www.w3.org/2000/svg"><g fill="none" fill-rule="evenodd"><path d="M1.071 1.369s.13-.442.587-.304l23.486 7.087 23.64-7.117s.442-.141.592.32c-.785.264-24.24 8.333-24.24 8.333L1.071 1.369z" fill="#393939"/><path d="M1.071 1.369s.13-.442.587-.304l23.486 7.087 23.64-7.117s.442-.141.592.32c-.785.264-24.24 8.333-24.24 8.333L1.071 1.369z" stroke="#393939" stroke-width=".25"/><path d="M31.005 6.384c-1.189-2.43-3.722-4.082-6.61-4.082a7.27 7.27 0 00-6.367 3.712l.46.657a6.604 6.604 0 015.907-3.65c2.778 0 5.186 1.688 6.162 4.116l.448-.753z" fill="#393939"/><path d="M31.005 6.384c-1.189-2.43-3.722-4.082-6.61-4.082a7.27 7.27 0 00-6.367 3.712l.46.657a6.604 6.604 0 015.907-3.65c2.778 0 5.186 1.688 6.162 4.116l.448-.753z" stroke="#393939" stroke-width=".25"/><path d="M30.21 9.974a5.826 5.826 0 01-11.633-.658l-.7-.848a6.618 6.618 0 1013.102.48l-.769 1.026z" fill="#393939"/><path d="M30.21 9.974a5.826 5.826 0 01-11.633-.658l-.7-.848a6.618 6.618 0 1013.102.48l-.769 1.026z" stroke="#393939" stroke-width=".25"/><path d="M19.94 11.475s-.163-.478.368-.7c.531-.222.792-.32.792-.32l4.036-.767-5.195 1.787z" fill="#393939"/><path d="M19.94 11.475s-.163-.478.368-.7c.531-.222.792-.32.792-.32l4.036-.767-5.195 1.787z" stroke="#393939" stroke-width=".25"/><path d="M21.094 10.464l-.902.367s-.382.21-.259.647"/><path d="M31.002 8.99l-.017.025a6.609 6.609 0 11-13.1-.477l-.762.232a7.333 7.333 0 1014.607.562l-.728-.342z" fill="#393939"/><path d="M49.392 1.35L25.136 9.689 1.058 1.368s-.057.137-.058.225c-.001.088.01.3.309.425.299.126 15.82 6.757 15.82 6.757l.758-.231.702.837 2.52 1.077 4.006-.763-5.182 1.781s.064.295.492.326c.429.03 4.767.384 4.767.384l5.01-2.136.784-1.043.738.377s17.08-7.228 17.46-7.382c.38-.155.208-.651.208-.651" fill="#393939"/><path d="M19.474 6.433a5.842 5.842 0 014.909-2.67 5.845 5.845 0 015.138 3.054l1.036.322a6.634 6.634 0 00-12.08-.463l.997-.243z" fill="#393939"/></g></svg>